<?xml version="1.0" encoding="utf-8" standalone="no"?>
<!DOCTYPE svg PUBLIC "-//W3C//DTD SVG 1.1//EN"
  "http://www.w3.org/Graphics/SVG/1.1/DTD/svg11.dtd">
<svg xmlns:xlink="http://www.w3.org/1999/xlink" width="623.284138pt" height="402.48pt" viewBox="0 0 623.284138 402.48" xmlns="http://www.w3.org/2000/svg" version="1.1">
 <metadata>
  <rdf:RDF xmlns:dc="http://purl.org/dc/elements/1.1/" xmlns:cc="http://creativecommons.org/ns#" xmlns:rdf="http://www.w3.org/1999/02/22-rdf-syntax-ns#">
   <cc:Work>
    <dc:type rdf:resource="http://purl.org/dc/dcmitype/StillImage"/>
    <dc:date>2026-03-21T00:27:47.022374</dc:date>
    <dc:format>image/svg+xml</dc:format>
    <dc:creator>
     <cc:Agent>
      <dc:title>Matplotlib v3.10.8, https://matplotlib.org/</dc:title>
     </cc:Agent>
    </dc:creator>
   </cc:Work>
  </rdf:RDF>
 </metadata>
 <defs>
  <style type="text/css">*{stroke-linejoin: round; stroke-linecap: butt}</style>
 </defs>
 <g id="figure_1">
  <g id="patch_1">
   <path d="M 0 402.48 
L 623.284138 402.48 
L 623.284138 -0 
L 0 -0 
L 0 402.48 
z
" style="fill: none"/>
  </g>
  <g id="axes_1">
   <g id="patch_2">
    <path d="M 74.110345 87.492414 
L 122.285793 87.492414 
L 122.285793 33.964138 
L 74.110345 33.964138 
z
" clip-path="url(#pa6b3593e00)" style="fill: #ffffff; stroke: #bdbdbd; stroke-width: 1.5; stroke-linejoin: miter"/>
   </g>
   <g id="patch_3">
    <path d="M 127.638621 87.492414 
L 175.814069 87.492414 
L 175.814069 33.964138 
L 127.638621 33.964138 
z
" clip-path="url(#pa6b3593e00)" style="fill: #ffffff; stroke: #bdbdbd; stroke-width: 1.5; stroke-linejoin: miter"/>
   </g>
   <g id="patch_4">
    <path d="M 181.166897 87.492414 
L 229.342345 87.492414 
L 229.342345 33.964138 
L 181.166897 33.964138 
z
" clip-path="url(#pa6b3593e00)" style="fill: #ffffff; stroke: #bdbdbd; stroke-width: 1.5; stroke-linejoin: miter"/>
   </g>
   <g id="patch_5">
    <path d="M 234.695172 87.492414 
L 282.870621 87.492414 
L 282.870621 33.964138 
L 234.695172 33.964138 
z
" clip-path="url(#pa6b3593e00)" style="fill: #ffffff; stroke: #bdbdbd; stroke-width: 1.5; stroke-linejoin: miter"/>
   </g>
   <g id="patch_6">
    <path d="M 288.223448 87.492414 
L 336.398897 87.492414 
L 336.398897 33.964138 
L 288.223448 33.964138 
z
" clip-path="url(#pa6b3593e00)" style="fill: #fff9c4; stroke: #fbc02d; stroke-width: 2.5; stroke-linejoin: miter"/>
   </g>
   <g id="patch_7">
    <path d="M 341.751724 87.492414 
L 389.927172 87.492414 
L 389.927172 33.964138 
L 341.751724 33.964138 
z
" clip-path="url(#pa6b3593e00)" style="fill: #ffffff; stroke: #bdbdbd; stroke-width: 1.5; stroke-linejoin: miter"/>
   </g>
   <g id="patch_8">
    <path d="M 395.28 87.492414 
L 443.455448 87.492414 
L 443.455448 33.964138 
L 395.28 33.964138 
z
" clip-path="url(#pa6b3593e00)" style="fill: #ffffff; stroke: #bdbdbd; stroke-width: 1.5; stroke-linejoin: miter"/>
   </g>
   <g id="patch_9">
    <path d="M 448.808276 87.492414 
L 496.983724 87.492414 
L 496.983724 33.964138 
L 448.808276 33.964138 
z
" clip-path="url(#pa6b3593e00)" style="fill: #ffffff; stroke: #bdbdbd; stroke-width: 1.5; stroke-linejoin: miter"/>
   </g>
   <g id="patch_10">
    <path d="M 7.2 221.313103 
L 55.375448 221.313103 
L 55.375448 167.784828 
L 7.2 167.784828 
z
" clip-path="url(#pa6b3593e00)" style="fill: #ffffff; stroke: #bdbdbd; stroke-width: 1.5; stroke-linejoin: miter"/>
   </g>
   <g id="patch_11">
    <path d="M 60.728276 221.313103 
L 108.903724 221.313103 
L 108.903724 167.784828 
L 60.728276 167.784828 
z
" clip-path="url(#pa6b3593e00)" style="fill: #ffffff; stroke: #bdbdbd; stroke-width: 1.5; stroke-linejoin: miter"/>
   </g>
   <g id="patch_12">
    <path d="M 114.256552 221.313103 
L 162.432 221.313103 
L 162.432 167.784828 
L 114.256552 167.784828 
z
" clip-path="url(#pa6b3593e00)" style="fill: #ffffff; stroke: #bdbdbd; stroke-width: 1.5; stroke-linejoin: miter"/>
   </g>
   <g id="patch_13">
    <path d="M 167.784828 221.313103 
L 215.960276 221.313103 
L 215.960276 167.784828 
L 167.784828 167.784828 
z
" clip-path="url(#pa6b3593e00)" style="fill: #ffffff; stroke: #bdbdbd; stroke-width: 1.5; stroke-linejoin: miter"/>
   </g>
   <g id="patch_14">
    <path d="M 408.662069 221.313103 
L 456.837517 221.313103 
L 456.837517 167.784828 
L 408.662069 167.784828 
z
" clip-path="url(#pa6b3593e00)" style="fill: #ffffff; stroke: #bdbdbd; stroke-width: 1.5; stroke-linejoin: miter"/>
   </g>
   <g id="patch_15">
    <path d="M 462.190345 221.313103 
L 510.365793 221.313103 
L 510.365793 167.784828 
L 462.190345 167.784828 
z
" clip-path="url(#pa6b3593e00)" style="fill: #fff9c4; stroke: #fbc02d; stroke-width: 2.5; stroke-linejoin: miter"/>
   </g>
   <g id="patch_16">
    <path d="M 515.718621 221.313103 
L 563.894069 221.313103 
L 563.894069 167.784828 
L 515.718621 167.784828 
z
" clip-path="url(#pa6b3593e00)" style="fill: #ffffff; stroke: #bdbdbd; stroke-width: 1.5; stroke-linejoin: miter"/>
   </g>
   <g id="patch_17">
    <path d="M 348.442759 355.133793 
L 396.618207 355.133793 
L 396.618207 301.605517 
L 348.442759 301.605517 
z
" clip-path="url(#pa6b3593e00)" style="fill: #fff9c4; stroke: #fbc02d; stroke-width: 2.5; stroke-linejoin: miter"/>
   </g>
   <g id="patch_18">
    <path d="M 562.555862 355.133793 
L 610.73131 355.133793 
L 610.73131 301.605517 
L 562.555862 301.605517 
z
" clip-path="url(#pa6b3593e00)" style="fill: #ffffff; stroke: #bdbdbd; stroke-width: 1.5; stroke-linejoin: miter"/>
   </g>
   <g id="line2d_1">
    <path d="M 144.366207 141.02069 
L 171.130345 114.256552 
" clip-path="url(#pa6b3593e00)" style="fill: none; stroke: #ff0000; stroke-width: 2; stroke-linecap: square"/>
   </g>
   <g id="line2d_2">
    <path d="M 144.366207 114.256552 
L 171.130345 141.02069 
" clip-path="url(#pa6b3593e00)" style="fill: none; stroke: #ff0000; stroke-width: 2; stroke-linecap: square"/>
   </g>
   <g id="line2d_3">
    <path d="M 552.51931 274.841379 
L 579.283448 248.077241 
" clip-path="url(#pa6b3593e00)" style="fill: none; stroke: #ff0000; stroke-width: 2; stroke-linecap: square"/>
   </g>
   <g id="line2d_4">
    <path d="M 552.51931 248.077241 
L 579.283448 274.841379 
" clip-path="url(#pa6b3593e00)" style="fill: none; stroke: #ff0000; stroke-width: 2; stroke-linecap: square"/>
   </g>
   <g id="text_1">
    <!-- 1 -->
    <g transform="translate(93.3276 64.591401) scale(0.14 -0.14)">
     <defs>
      <path id="DejaVuSans-Bold-31" d="M 750 831 
L 1813 831 
L 1813 3847 
L 722 3622 
L 722 4441 
L 1806 4666 
L 2950 4666 
L 2950 831 
L 4013 831 
L 4013 0 
L 750 0 
L 750 831 
z
" transform="scale(0.015625)"/>
     </defs>
     <use xlink:href="#DejaVuSans-Bold-31"/>
    </g>
   </g>
   <g id="text_2">
    <!-- 2 -->
    <g transform="translate(146.855876 64.591401) scale(0.14 -0.14)">
     <defs>
      <path id="DejaVuSans-Bold-32" d="M 1844 884 
L 3897 884 
L 3897 0 
L 506 0 
L 506 884 
L 2209 2388 
Q 2438 2594 2547 2791 
Q 2656 2988 2656 3200 
Q 2656 3528 2436 3728 
Q 2216 3928 1850 3928 
Q 1569 3928 1234 3808 
Q 900 3688 519 3450 
L 519 4475 
Q 925 4609 1322 4679 
Q 1719 4750 2100 4750 
Q 2938 4750 3402 4381 
Q 3866 4013 3866 3353 
Q 3866 2972 3669 2642 
Q 3472 2313 2841 1759 
L 1844 884 
z
" transform="scale(0.015625)"/>
     </defs>
     <use xlink:href="#DejaVuSans-Bold-32"/>
    </g>
   </g>
   <g id="text_3">
    <!-- 3 -->
    <g transform="translate(200.384152 64.591401) scale(0.14 -0.14)">
     <defs>
      <path id="DejaVuSans-Bold-33" d="M 2981 2516 
Q 3453 2394 3698 2092 
Q 3944 1791 3944 1325 
Q 3944 631 3412 270 
Q 2881 -91 1863 -91 
Q 1503 -91 1142 -33 
Q 781 25 428 141 
L 428 1069 
Q 766 900 1098 814 
Q 1431 728 1753 728 
Q 2231 728 2486 893 
Q 2741 1059 2741 1369 
Q 2741 1688 2480 1852 
Q 2219 2016 1709 2016 
L 1228 2016 
L 1228 2791 
L 1734 2791 
Q 2188 2791 2409 2933 
Q 2631 3075 2631 3366 
Q 2631 3634 2415 3781 
Q 2200 3928 1806 3928 
Q 1516 3928 1219 3862 
Q 922 3797 628 3669 
L 628 4550 
Q 984 4650 1334 4700 
Q 1684 4750 2022 4750 
Q 2931 4750 3382 4451 
Q 3834 4153 3834 3553 
Q 3834 3144 3618 2883 
Q 3403 2622 2981 2516 
z
" transform="scale(0.015625)"/>
     </defs>
     <use xlink:href="#DejaVuSans-Bold-33"/>
    </g>
   </g>
   <g id="text_4">
    <!-- 4 -->
    <g transform="translate(253.912428 64.591401) scale(0.14 -0.14)">
     <defs>
      <path id="DejaVuSans-Bold-34" d="M 2356 3675 
L 1038 1722 
L 2356 1722 
L 2356 3675 
z
M 2156 4666 
L 3494 4666 
L 3494 1722 
L 4159 1722 
L 4159 850 
L 3494 850 
L 3494 0 
L 2356 0 
L 2356 850 
L 288 850 
L 288 1881 
L 2156 4666 
z
" transform="scale(0.015625)"/>
     </defs>
     <use xlink:href="#DejaVuSans-Bold-34"/>
    </g>
   </g>
   <g id="text_5">
    <!-- 5 -->
    <g transform="translate(307.440704 64.591401) scale(0.14 -0.14)">
     <defs>
      <path id="DejaVuSans-Bold-35" d="M 678 4666 
L 3669 4666 
L 3669 3781 
L 1638 3781 
L 1638 3059 
Q 1775 3097 1914 3117 
Q 2053 3138 2203 3138 
Q 3056 3138 3531 2711 
Q 4006 2284 4006 1522 
Q 4006 766 3489 337 
Q 2972 -91 2053 -91 
Q 1656 -91 1267 -14 
Q 878 63 494 219 
L 494 1166 
Q 875 947 1217 837 
Q 1559 728 1863 728 
Q 2300 728 2551 942 
Q 2803 1156 2803 1522 
Q 2803 1891 2551 2103 
Q 2300 2316 1863 2316 
Q 1603 2316 1309 2248 
Q 1016 2181 678 2041 
L 678 4666 
z
" transform="scale(0.015625)"/>
     </defs>
     <use xlink:href="#DejaVuSans-Bold-35"/>
    </g>
   </g>
   <g id="text_6">
    <!-- 7 -->
    <g transform="translate(360.96898 64.591401) scale(0.14 -0.14)">
     <defs>
      <path id="DejaVuSans-Bold-37" d="M 428 4666 
L 3944 4666 
L 3944 3988 
L 2125 0 
L 953 0 
L 2675 3781 
L 428 3781 
L 428 4666 
z
" transform="scale(0.015625)"/>
     </defs>
     <use xlink:href="#DejaVuSans-Bold-37"/>
    </g>
   </g>
   <g id="text_7">
    <!-- 8 -->
    <g transform="translate(414.497255 64.591401) scale(0.14 -0.14)">
     <defs>
      <path id="DejaVuSans-Bold-38" d="M 2228 2088 
Q 1891 2088 1709 1903 
Q 1528 1719 1528 1375 
Q 1528 1031 1709 848 
Q 1891 666 2228 666 
Q 2563 666 2741 848 
Q 2919 1031 2919 1375 
Q 2919 1722 2741 1905 
Q 2563 2088 2228 2088 
z
M 1350 2484 
Q 925 2613 709 2878 
Q 494 3144 494 3541 
Q 494 4131 934 4440 
Q 1375 4750 2228 4750 
Q 3075 4750 3515 4442 
Q 3956 4134 3956 3541 
Q 3956 3144 3739 2878 
Q 3522 2613 3097 2484 
Q 3572 2353 3814 2058 
Q 4056 1763 4056 1313 
Q 4056 619 3595 264 
Q 3134 -91 2228 -91 
Q 1319 -91 855 264 
Q 391 619 391 1313 
Q 391 1763 633 2058 
Q 875 2353 1350 2484 
z
M 1631 3419 
Q 1631 3141 1786 2991 
Q 1941 2841 2228 2841 
Q 2509 2841 2662 2991 
Q 2816 3141 2816 3419 
Q 2816 3697 2662 3845 
Q 2509 3994 2228 3994 
Q 1941 3994 1786 3844 
Q 1631 3694 1631 3419 
z
" transform="scale(0.015625)"/>
     </defs>
     <use xlink:href="#DejaVuSans-Bold-38"/>
    </g>
   </g>
   <g id="text_8">
    <!-- 9 -->
    <g transform="translate(468.025531 64.591401) scale(0.14 -0.14)">
     <defs>
      <path id="DejaVuSans-Bold-39" d="M 641 103 
L 641 966 
Q 928 831 1190 764 
Q 1453 697 1709 697 
Q 2247 697 2547 995 
Q 2847 1294 2900 1881 
Q 2688 1725 2447 1647 
Q 2206 1569 1925 1569 
Q 1209 1569 770 1986 
Q 331 2403 331 3084 
Q 331 3838 820 4291 
Q 1309 4744 2131 4744 
Q 3044 4744 3544 4128 
Q 4044 3513 4044 2388 
Q 4044 1231 3459 570 
Q 2875 -91 1856 -91 
Q 1528 -91 1228 -42 
Q 928 6 641 103 
z
M 2125 2350 
Q 2441 2350 2600 2554 
Q 2759 2759 2759 3169 
Q 2759 3575 2600 3781 
Q 2441 3988 2125 3988 
Q 1809 3988 1650 3781 
Q 1491 3575 1491 3169 
Q 1491 2759 1650 2554 
Q 1809 2350 2125 2350 
z
" transform="scale(0.015625)"/>
     </defs>
     <use xlink:href="#DejaVuSans-Bold-39"/>
    </g>
   </g>
   <g id="text_9">
    <!-- Step 1: Partition at 5 -->
    <g style="fill: #1976d2" transform="translate(237.232177 20.582069) scale(0.12 -0.12)">
     <defs>
      <path id="DejaVuSans-Bold-53" d="M 3834 4519 
L 3834 3531 
Q 3450 3703 3084 3790 
Q 2719 3878 2394 3878 
Q 1963 3878 1756 3759 
Q 1550 3641 1550 3391 
Q 1550 3203 1689 3098 
Q 1828 2994 2194 2919 
L 2706 2816 
Q 3484 2659 3812 2340 
Q 4141 2022 4141 1434 
Q 4141 663 3683 286 
Q 3225 -91 2284 -91 
Q 1841 -91 1394 -6 
Q 947 78 500 244 
L 500 1259 
Q 947 1022 1364 901 
Q 1781 781 2169 781 
Q 2563 781 2772 912 
Q 2981 1044 2981 1288 
Q 2981 1506 2839 1625 
Q 2697 1744 2272 1838 
L 1806 1941 
Q 1106 2091 782 2419 
Q 459 2747 459 3303 
Q 459 4000 909 4375 
Q 1359 4750 2203 4750 
Q 2588 4750 2994 4692 
Q 3400 4634 3834 4519 
z
" transform="scale(0.015625)"/>
      <path id="DejaVuSans-Bold-74" d="M 1759 4494 
L 1759 3500 
L 2913 3500 
L 2913 2700 
L 1759 2700 
L 1759 1216 
Q 1759 972 1856 886 
Q 1953 800 2241 800 
L 2816 800 
L 2816 0 
L 1856 0 
Q 1194 0 917 276 
Q 641 553 641 1216 
L 641 2700 
L 84 2700 
L 84 3500 
L 641 3500 
L 641 4494 
L 1759 4494 
z
" transform="scale(0.015625)"/>
      <path id="DejaVuSans-Bold-65" d="M 4031 1759 
L 4031 1441 
L 1416 1441 
Q 1456 1047 1700 850 
Q 1944 653 2381 653 
Q 2734 653 3104 758 
Q 3475 863 3866 1075 
L 3866 213 
Q 3469 63 3072 -14 
Q 2675 -91 2278 -91 
Q 1328 -91 801 392 
Q 275 875 275 1747 
Q 275 2603 792 3093 
Q 1309 3584 2216 3584 
Q 3041 3584 3536 3087 
Q 4031 2591 4031 1759 
z
M 2881 2131 
Q 2881 2450 2695 2645 
Q 2509 2841 2209 2841 
Q 1884 2841 1681 2658 
Q 1478 2475 1428 2131 
L 2881 2131 
z
" transform="scale(0.015625)"/>
      <path id="DejaVuSans-Bold-70" d="M 1656 506 
L 1656 -1331 
L 538 -1331 
L 538 3500 
L 1656 3500 
L 1656 2988 
Q 1888 3294 2169 3439 
Q 2450 3584 2816 3584 
Q 3463 3584 3878 3070 
Q 4294 2556 4294 1747 
Q 4294 938 3878 423 
Q 3463 -91 2816 -91 
Q 2450 -91 2169 54 
Q 1888 200 1656 506 
z
M 2400 2772 
Q 2041 2772 1848 2508 
Q 1656 2244 1656 1747 
Q 1656 1250 1848 986 
Q 2041 722 2400 722 
Q 2759 722 2948 984 
Q 3138 1247 3138 1747 
Q 3138 2247 2948 2509 
Q 2759 2772 2400 2772 
z
" transform="scale(0.015625)"/>
      <path id="DejaVuSans-Bold-20" transform="scale(0.015625)"/>
      <path id="DejaVuSans-Bold-3a" d="M 716 3500 
L 1844 3500 
L 1844 2291 
L 716 2291 
L 716 3500 
z
M 716 1209 
L 1844 1209 
L 1844 0 
L 716 0 
L 716 1209 
z
" transform="scale(0.015625)"/>
      <path id="DejaVuSans-Bold-50" d="M 588 4666 
L 2584 4666 
Q 3475 4666 3951 4270 
Q 4428 3875 4428 3144 
Q 4428 2409 3951 2014 
Q 3475 1619 2584 1619 
L 1791 1619 
L 1791 0 
L 588 0 
L 588 4666 
z
M 1791 3794 
L 1791 2491 
L 2456 2491 
Q 2806 2491 2997 2661 
Q 3188 2831 3188 3144 
Q 3188 3456 2997 3625 
Q 2806 3794 2456 3794 
L 1791 3794 
z
" transform="scale(0.015625)"/>
      <path id="DejaVuSans-Bold-61" d="M 2106 1575 
Q 1756 1575 1579 1456 
Q 1403 1338 1403 1106 
Q 1403 894 1545 773 
Q 1688 653 1941 653 
Q 2256 653 2472 879 
Q 2688 1106 2688 1447 
L 2688 1575 
L 2106 1575 
z
M 3816 1997 
L 3816 0 
L 2688 0 
L 2688 519 
Q 2463 200 2181 54 
Q 1900 -91 1497 -91 
Q 953 -91 614 226 
Q 275 544 275 1050 
Q 275 1666 698 1953 
Q 1122 2241 2028 2241 
L 2688 2241 
L 2688 2328 
Q 2688 2594 2478 2717 
Q 2269 2841 1825 2841 
Q 1466 2841 1156 2769 
Q 847 2697 581 2553 
L 581 3406 
Q 941 3494 1303 3539 
Q 1666 3584 2028 3584 
Q 2975 3584 3395 3211 
Q 3816 2838 3816 1997 
z
" transform="scale(0.015625)"/>
      <path id="DejaVuSans-Bold-72" d="M 3138 2547 
Q 2991 2616 2845 2648 
Q 2700 2681 2553 2681 
Q 2122 2681 1889 2404 
Q 1656 2128 1656 1613 
L 1656 0 
L 538 0 
L 538 3500 
L 1656 3500 
L 1656 2925 
Q 1872 3269 2151 3426 
Q 2431 3584 2822 3584 
Q 2878 3584 2943 3579 
Q 3009 3575 3134 3559 
L 3138 2547 
z
" transform="scale(0.015625)"/>
      <path id="DejaVuSans-Bold-69" d="M 538 3500 
L 1656 3500 
L 1656 0 
L 538 0 
L 538 3500 
z
M 538 4863 
L 1656 4863 
L 1656 3950 
L 538 3950 
L 538 4863 
z
" transform="scale(0.015625)"/>
      <path id="DejaVuSans-Bold-6f" d="M 2203 2784 
Q 1831 2784 1636 2517 
Q 1441 2250 1441 1747 
Q 1441 1244 1636 976 
Q 1831 709 2203 709 
Q 2569 709 2762 976 
Q 2956 1244 2956 1747 
Q 2956 2250 2762 2517 
Q 2569 2784 2203 2784 
z
M 2203 3584 
Q 3106 3584 3614 3096 
Q 4122 2609 4122 1747 
Q 4122 884 3614 396 
Q 3106 -91 2203 -91 
Q 1297 -91 786 396 
Q 275 884 275 1747 
Q 275 2609 786 3096 
Q 1297 3584 2203 3584 
z
" transform="scale(0.015625)"/>
      <path id="DejaVuSans-Bold-6e" d="M 4056 2131 
L 4056 0 
L 2931 0 
L 2931 347 
L 2931 1631 
Q 2931 2084 2911 2256 
Q 2891 2428 2841 2509 
Q 2775 2619 2662 2680 
Q 2550 2741 2406 2741 
Q 2056 2741 1856 2470 
Q 1656 2200 1656 1722 
L 1656 0 
L 538 0 
L 538 3500 
L 1656 3500 
L 1656 2988 
Q 1909 3294 2193 3439 
Q 2478 3584 2822 3584 
Q 3428 3584 3742 3212 
Q 4056 2841 4056 2131 
z
" transform="scale(0.015625)"/>
     </defs>
     <use xlink:href="#DejaVuSans-Bold-53"/>
     <use xlink:href="#DejaVuSans-Bold-74" transform="translate(72.021484 0)"/>
     <use xlink:href="#DejaVuSans-Bold-65" transform="translate(119.824219 0)"/>
     <use xlink:href="#DejaVuSans-Bold-70" transform="translate(187.646484 0)"/>
     <use xlink:href="#DejaVuSans-Bold-20" transform="translate(259.228516 0)"/>
     <use xlink:href="#DejaVuSans-Bold-31" transform="translate(294.042969 0)"/>
     <use xlink:href="#DejaVuSans-Bold-3a" transform="translate(363.623047 0)"/>
     <use xlink:href="#DejaVuSans-Bold-20" transform="translate(403.613281 0)"/>
     <use xlink:href="#DejaVuSans-Bold-50" transform="translate(438.427734 0)"/>
     <use xlink:href="#DejaVuSans-Bold-61" transform="translate(509.09375 0)"/>
     <use xlink:href="#DejaVuSans-Bold-72" transform="translate(576.574219 0)"/>
     <use xlink:href="#DejaVuSans-Bold-74" transform="translate(625.890625 0)"/>
     <use xlink:href="#DejaVuSans-Bold-69" transform="translate(673.693359 0)"/>
     <use xlink:href="#DejaVuSans-Bold-74" transform="translate(707.970703 0)"/>
     <use xlink:href="#DejaVuSans-Bold-69" transform="translate(755.773438 0)"/>
     <use xlink:href="#DejaVuSans-Bold-6f" transform="translate(790.050781 0)"/>
     <use xlink:href="#DejaVuSans-Bold-6e" transform="translate(858.751953 0)"/>
     <use xlink:href="#DejaVuSans-Bold-20" transform="translate(929.943359 0)"/>
     <use xlink:href="#DejaVuSans-Bold-61" transform="translate(964.757812 0)"/>
     <use xlink:href="#DejaVuSans-Bold-74" transform="translate(1032.238281 0)"/>
     <use xlink:href="#DejaVuSans-Bold-20" transform="translate(1080.041016 0)"/>
     <use xlink:href="#DejaVuSans-Bold-35" transform="translate(1114.855469 0)"/>
    </g>
   </g>
   <g id="patch_19">
    <path d="M 206.267873 95.292223 
Q 157.749556 127.637767 110.626631 159.053051 
" style="fill: none; stroke: #808080; stroke-width: 1.5; stroke-linecap: round"/>
    <path d="M 115.064232 158.498351 
L 110.626631 159.053051 
L 112.845432 155.170149 
" style="fill: none; stroke: #808080; stroke-width: 1.5; stroke-linecap: round"/>
   </g>
   <g id="patch_20">
    <path d="M 410.077135 95.598514 
Q 442.118213 127.639593 472.973438 158.494818 
" style="fill: none; stroke: #808080; stroke-width: 1.5; stroke-linecap: round"/>
    <path d="M 471.559225 154.252177 
L 472.973438 158.494818 
L 468.730798 157.080604 
" style="fill: none; stroke: #808080; stroke-width: 1.5; stroke-linecap: round"/>
   </g>
   <g id="text_10">
    <!-- 1 -->
    <g transform="translate(26.417255 198.412091) scale(0.14 -0.14)">
     <use xlink:href="#DejaVuSans-Bold-31"/>
    </g>
   </g>
   <g id="text_11">
    <!-- 2 -->
    <g transform="translate(79.945531 198.412091) scale(0.14 -0.14)">
     <use xlink:href="#DejaVuSans-Bold-32"/>
    </g>
   </g>
   <g id="text_12">
    <!-- 3 -->
    <g transform="translate(133.473807 198.412091) scale(0.14 -0.14)">
     <use xlink:href="#DejaVuSans-Bold-33"/>
    </g>
   </g>
   <g id="text_13">
    <!-- 4 -->
    <g transform="translate(187.002083 198.412091) scale(0.14 -0.14)">
     <use xlink:href="#DejaVuSans-Bold-34"/>
    </g>
   </g>
   <g id="text_14">
    <!-- 7 -->
    <g transform="translate(427.879324 198.412091) scale(0.14 -0.14)">
     <use xlink:href="#DejaVuSans-Bold-37"/>
    </g>
   </g>
   <g id="text_15">
    <!-- 8 -->
    <g transform="translate(481.4076 198.412091) scale(0.14 -0.14)">
     <use xlink:href="#DejaVuSans-Bold-38"/>
    </g>
   </g>
   <g id="text_16">
    <!-- 9 -->
    <g transform="translate(534.935876 198.412091) scale(0.14 -0.14)">
     <use xlink:href="#DejaVuSans-Bold-39"/>
    </g>
   </g>
   <g id="text_17">
    <!-- Step 2: Partition at 8 -->
    <g style="fill: #1976d2" transform="translate(423.812139 147.711724) scale(0.11 -0.11)">
     <use xlink:href="#DejaVuSans-Bold-53"/>
     <use xlink:href="#DejaVuSans-Bold-74" transform="translate(72.021484 0)"/>
     <use xlink:href="#DejaVuSans-Bold-65" transform="translate(119.824219 0)"/>
     <use xlink:href="#DejaVuSans-Bold-70" transform="translate(187.646484 0)"/>
     <use xlink:href="#DejaVuSans-Bold-20" transform="translate(259.228516 0)"/>
     <use xlink:href="#DejaVuSans-Bold-32" transform="translate(294.042969 0)"/>
     <use xlink:href="#DejaVuSans-Bold-3a" transform="translate(363.623047 0)"/>
     <use xlink:href="#DejaVuSans-Bold-20" transform="translate(403.613281 0)"/>
     <use xlink:href="#DejaVuSans-Bold-50" transform="translate(438.427734 0)"/>
     <use xlink:href="#DejaVuSans-Bold-61" transform="translate(509.09375 0)"/>
     <use xlink:href="#DejaVuSans-Bold-72" transform="translate(576.574219 0)"/>
     <use xlink:href="#DejaVuSans-Bold-74" transform="translate(625.890625 0)"/>
     <use xlink:href="#DejaVuSans-Bold-69" transform="translate(673.693359 0)"/>
     <use xlink:href="#DejaVuSans-Bold-74" transform="translate(707.970703 0)"/>
     <use xlink:href="#DejaVuSans-Bold-69" transform="translate(755.773438 0)"/>
     <use xlink:href="#DejaVuSans-Bold-6f" transform="translate(790.050781 0)"/>
     <use xlink:href="#DejaVuSans-Bold-6e" transform="translate(858.751953 0)"/>
     <use xlink:href="#DejaVuSans-Bold-20" transform="translate(929.943359 0)"/>
     <use xlink:href="#DejaVuSans-Bold-61" transform="translate(964.757812 0)"/>
     <use xlink:href="#DejaVuSans-Bold-74" transform="translate(1032.238281 0)"/>
     <use xlink:href="#DejaVuSans-Bold-20" transform="translate(1080.041016 0)"/>
     <use xlink:href="#DejaVuSans-Bold-38" transform="translate(1114.855469 0)"/>
    </g>
   </g>
   <g id="patch_21">
    <path d="M 440.702176 229.419204 
Q 408.661097 261.460282 377.805872 292.315507 
" style="fill: none; stroke: #808080; stroke-width: 1.5; stroke-linecap: round"/>
    <path d="M 382.048513 290.901294 
L 377.805872 292.315507 
L 379.220086 288.072867 
" style="fill: none; stroke: #808080; stroke-width: 1.5; stroke-linecap: round"/>
   </g>
   <g id="patch_22">
    <path d="M 543.629105 229.641775 
Q 565.901464 261.459431 587.212098 291.903194 
" style="fill: none; stroke: #808080; stroke-width: 1.5; stroke-linecap: round"/>
    <path d="M 586.556712 287.479341 
L 587.212098 291.903194 
L 583.279785 289.773191 
" style="fill: none; stroke: #808080; stroke-width: 1.5; stroke-linecap: round"/>
   </g>
   <g id="text_18">
    <!-- 7 -->
    <g transform="translate(367.660014 332.23278) scale(0.14 -0.14)">
     <use xlink:href="#DejaVuSans-Bold-37"/>
    </g>
   </g>
   <g id="text_19">
    <!-- Target Found! -->
    <g style="fill: #2e7d32" transform="translate(328.002834 381.897931) scale(0.12 -0.12)">
     <defs>
      <path id="DejaVuSans-Bold-54" d="M 31 4666 
L 4331 4666 
L 4331 3756 
L 2784 3756 
L 2784 0 
L 1581 0 
L 1581 3756 
L 31 3756 
L 31 4666 
z
" transform="scale(0.015625)"/>
      <path id="DejaVuSans-Bold-67" d="M 2919 594 
Q 2688 288 2409 144 
Q 2131 0 1766 0 
Q 1125 0 706 504 
Q 288 1009 288 1791 
Q 288 2575 706 3076 
Q 1125 3578 1766 3578 
Q 2131 3578 2409 3434 
Q 2688 3291 2919 2981 
L 2919 3500 
L 4044 3500 
L 4044 353 
Q 4044 -491 3511 -936 
Q 2978 -1381 1966 -1381 
Q 1638 -1381 1331 -1331 
Q 1025 -1281 716 -1178 
L 716 -306 
Q 1009 -475 1290 -558 
Q 1572 -641 1856 -641 
Q 2406 -641 2662 -400 
Q 2919 -159 2919 353 
L 2919 594 
z
M 2181 2772 
Q 1834 2772 1640 2515 
Q 1447 2259 1447 1791 
Q 1447 1309 1634 1061 
Q 1822 813 2181 813 
Q 2531 813 2725 1069 
Q 2919 1325 2919 1791 
Q 2919 2259 2725 2515 
Q 2531 2772 2181 2772 
z
" transform="scale(0.015625)"/>
      <path id="DejaVuSans-Bold-46" d="M 588 4666 
L 3834 4666 
L 3834 3756 
L 1791 3756 
L 1791 2888 
L 3713 2888 
L 3713 1978 
L 1791 1978 
L 1791 0 
L 588 0 
L 588 4666 
z
" transform="scale(0.015625)"/>
      <path id="DejaVuSans-Bold-75" d="M 500 1363 
L 500 3500 
L 1625 3500 
L 1625 3150 
Q 1625 2866 1622 2436 
Q 1619 2006 1619 1863 
Q 1619 1441 1641 1255 
Q 1663 1069 1716 984 
Q 1784 875 1895 815 
Q 2006 756 2150 756 
Q 2500 756 2700 1025 
Q 2900 1294 2900 1772 
L 2900 3500 
L 4019 3500 
L 4019 0 
L 2900 0 
L 2900 506 
Q 2647 200 2364 54 
Q 2081 -91 1741 -91 
Q 1134 -91 817 281 
Q 500 653 500 1363 
z
" transform="scale(0.015625)"/>
      <path id="DejaVuSans-Bold-64" d="M 2919 2988 
L 2919 4863 
L 4044 4863 
L 4044 0 
L 2919 0 
L 2919 506 
Q 2688 197 2409 53 
Q 2131 -91 1766 -91 
Q 1119 -91 703 423 
Q 288 938 288 1747 
Q 288 2556 703 3070 
Q 1119 3584 1766 3584 
Q 2128 3584 2408 3439 
Q 2688 3294 2919 2988 
z
M 2181 722 
Q 2541 722 2730 984 
Q 2919 1247 2919 1747 
Q 2919 2247 2730 2509 
Q 2541 2772 2181 2772 
Q 1825 2772 1636 2509 
Q 1447 2247 1447 1747 
Q 1447 1247 1636 984 
Q 1825 722 2181 722 
z
" transform="scale(0.015625)"/>
      <path id="DejaVuSans-Bold-21" d="M 897 4666 
L 2022 4666 
L 2022 2875 
L 1863 1569 
L 1056 1569 
L 897 2875 
L 897 4666 
z
M 897 1113 
L 2022 1113 
L 2022 0 
L 897 0 
L 897 1113 
z
" transform="scale(0.015625)"/>
     </defs>
     <use xlink:href="#DejaVuSans-Bold-54"/>
     <use xlink:href="#DejaVuSans-Bold-61" transform="translate(55.337891 0)"/>
     <use xlink:href="#DejaVuSans-Bold-72" transform="translate(122.818359 0)"/>
     <use xlink:href="#DejaVuSans-Bold-67" transform="translate(172.134766 0)"/>
     <use xlink:href="#DejaVuSans-Bold-65" transform="translate(243.716797 0)"/>
     <use xlink:href="#DejaVuSans-Bold-74" transform="translate(311.539062 0)"/>
     <use xlink:href="#DejaVuSans-Bold-20" transform="translate(359.341797 0)"/>
     <use xlink:href="#DejaVuSans-Bold-46" transform="translate(394.15625 0)"/>
     <use xlink:href="#DejaVuSans-Bold-6f" transform="translate(458.466797 0)"/>
     <use xlink:href="#DejaVuSans-Bold-75" transform="translate(527.167969 0)"/>
     <use xlink:href="#DejaVuSans-Bold-6e" transform="translate(598.359375 0)"/>
     <use xlink:href="#DejaVuSans-Bold-64" transform="translate(669.550781 0)"/>
     <use xlink:href="#DejaVuSans-Bold-21" transform="translate(741.132812 0)"/>
    </g>
   </g>
   <g id="text_20">
    <!-- 9 -->
    <g transform="translate(581.773117 332.23278) scale(0.14 -0.14)">
     <use xlink:href="#DejaVuSans-Bold-39"/>
    </g>
   </g>
  </g>
 </g>
 <defs>
  <clipPath id="pa6b3593e00">
   <rect x="7.2" y="7.2" width="608.884138" height="388.08"/>
  </clipPath>
 </defs>
</svg>
