<svg xmlns="http://www.w3.org/2000/svg" width="788" height="687" viewBox="0 0 788 687"><path fill="#3677ab" d="M94.91 543.15a3 3 0 0 0 2.99-.57zM632.02 439.8a3 3 0 0 0 2.99-.58zM280.35 51.56a3 3 0 1 0 1.14 5.9 3 3 0 0 0-1.14-5.9m-23.87 20.67a3 3 0 1 0 1.14 5.9 3 3 0 0 0-1.14-5.9m-23.87 20.68a3 3 0 1 0 1.14 5.89 3 3 0 0 0-1.14-5.9m-23.87 20.67a3 3 0 1 0 1.14 5.9 3 3 0 0 0-1.14-5.9m-23.87 20.67a3 3 0 1 0 1.14 5.9 3 3 0 0 0-1.14-5.9M161 154.93a3 3 0 1 0 1.13 5.89 3 3 0 0 0-1.13-5.9m-23.88 20.67a3 3 0 1 0 1.14 5.9 3 3 0 0 0-1.14-5.9m-23.87 20.67a3 3 0 1 0 1.14 5.9 3 3 0 0 0-1.14-5.9m-23.87 20.68a3 3 0 1 0 1.14 5.89 3 3 0 0 0-1.14-5.9m-23.87 20.67a3 3 0 1 0 1.14 5.9 3 3 0 0 0-1.14-5.9M310.19 61.9a3 3 0 1 0 1.14 5.9 3 3 0 0 0-1.14-5.9m-23.87 20.67a3 3 0 1 0 1.14 5.9 3 3 0 0 0-1.14-5.9m-23.87 20.67a3 3 0 1 0 1.14 5.9 3 3 0 0 0-1.14-5.9m-23.87 20.68a3 3 0 1 0 1.14 5.89 3 3 0 0 0-1.14-5.9m-23.87 20.67a3 3 0 1 0 1.14 5.9 3 3 0 0 0-1.14-5.9m-23.87 20.67a3 3 0 1 0 1.13 5.9 3 3 0 0 0-1.13-5.9m-23.88 20.68a3 3 0 1 0 1.14 5.89 3 3 0 0 0-1.14-5.9M143.1 206.6a3 3 0 1 0 1.14 5.9 3 3 0 0 0-1.14-5.9m-23.87 20.67a3 3 0 1 0 1.14 5.9 3 3 0 0 0-1.14-5.9m-23.87 20.68a3 3 0 1 0 1.14 5.89 3 3 0 0 0-1.14-5.9m-23.87 20.67a3 3 0 1 0 1.14 5.9 3 3 0 0 0-1.14-5.9m268.55-196.4a3 3 0 1 0 1.14 5.9 3 3 0 0 0-1.14-5.9m-23.87 20.68a3 3 0 1 0 1.14 5.89 3 3 0 0 0-1.14-5.9m-23.87 20.67a3 3 0 1 0 1.14 5.9 3 3 0 0 0-1.14-5.9m-23.87 20.67a3 3 0 1 0 1.14 5.9 3 3 0 0 0-1.14-5.9m-23.87 20.68a3 3 0 1 0 1.13 5.89 3 3 0 0 0-1.13-5.9m-23.88 20.67a3 3 0 1 0 1.14 5.9 3 3 0 0 0-1.14-5.9m-23.87 20.67a3 3 0 1 0 1.14 5.9 3 3 0 0 0-1.14-5.9m-23.87 20.68a3 3 0 1 0 1.14 5.89 3 3 0 0 0-1.14-5.9m-23.87 20.67a3 3 0 1 0 1.14 5.9 3 3 0 0 0-1.14-5.9m-23.87 20.67a3 3 0 1 0 1.14 5.9 3 3 0 0 0-1.14-5.9m-23.87 20.67a3 3 0 1 0 1.14 5.9 3 3 0 0 0-1.14-5.9m-23.87 20.68a3 3 0 1 0 1.13 5.9 3 3 0 0 0-1.13-5.9M369.87 82.57a3 3 0 1 0 1.14 5.9 3 3 0 0 0-1.14-5.9M346 103.24a3 3 0 1 0 1.14 5.9 3 3 0 0 0-1.14-5.9m-23.87 20.68a3 3 0 1 0 1.14 5.89 3 3 0 0 0-1.14-5.9m-23.87 20.67a3 3 0 1 0 1.14 5.9 3 3 0 0 0-1.14-5.9m-23.87 20.67a3 3 0 1 0 1.13 5.9 3 3 0 0 0-1.13-5.9m-23.88 20.68a3 3 0 1 0 1.14 5.89 3 3 0 0 0-1.14-5.9m-23.87 20.67a3 3 0 1 0 1.14 5.9 3 3 0 0 0-1.14-5.9m-23.87 20.67a3 3 0 1 0 1.14 5.9 3 3 0 0 0-1.14-5.9m-23.87 20.68a3 3 0 1 0 1.14 5.89 3 3 0 0 0-1.14-5.9m-23.87 20.67a3 3 0 1 0 1.14 5.9 3 3 0 0 0-1.14-5.9m-23.87 20.67a3 3 0 1 0 1.14 5.9 3 3 0 0 0-1.14-5.9m-23.87 20.67a3 3 0 1 0 1.13 5.9 3 3 0 0 0-1.13-5.9M83.4 330.65a3 3 0 1 0 1.14 5.9 3 3 0 0 0-1.14-5.9M399.71 92.9a3 3 0 1 0 1.14 5.89 3 3 0 0 0-1.14-5.9m-23.87 20.67a3 3 0 1 0 1.14 5.9 3 3 0 0 0-1.14-5.9m-23.87 20.67a3 3 0 1 0 1.14 5.9 3 3 0 0 0-1.14-5.9m-23.87 20.68a3 3 0 1 0 1.13 5.89 3 3 0 0 0-1.13-5.9m-23.88 20.67a3 3 0 1 0 1.14 5.9 3 3 0 0 0-1.14-5.9m-23.87 20.67a3 3 0 1 0 1.14 5.9 3 3 0 0 0-1.14-5.9m-23.87 20.68a3 3 0 1 0 1.14 5.89 3 3 0 0 0-1.14-5.9m-23.87 20.67a3 3 0 1 0 1.14 5.9 3 3 0 0 0-1.14-5.9m-23.87 20.67a3 3 0 1 0 1.14 5.9 3 3 0 0 0-1.14-5.9m-23.87 20.67a3 3 0 1 0 1.14 5.9 3 3 0 0 0-1.14-5.9M161 299.64a3 3 0 1 0 1.13 5.9 3 3 0 0 0-1.13-5.9m-23.88 20.67a3 3 0 1 0 1.14 5.9 3 3 0 0 0-1.14-5.9m-23.87 20.67a3 3 0 1 0 1.14 5.9 3 3 0 0 0-1.14-5.9m-23.87 20.68a3 3 0 1 0 1.14 5.9 3 3 0 0 0-1.14-5.9m340.17-258.42a3 3 0 1 0 1.14 5.9 3 3 0 0 0-1.14-5.9m-23.87 20.68a3 3 0 1 0 1.14 5.89 3 3 0 0 0-1.14-5.9m-23.87 20.67a3 3 0 1 0 1.14 5.9 3 3 0 0 0-1.14-5.9m-23.87 20.67a3 3 0 1 0 1.13 5.9 3 3 0 0 0-1.13-5.9m-23.88 20.68a3 3 0 1 0 1.14 5.89 3 3 0 0 0-1.14-5.9M310.2 206.6a3 3 0 1 0 1.14 5.9 3 3 0 0 0-1.14-5.9m-23.87 20.67a3 3 0 1 0 1.14 5.9 3 3 0 0 0-1.14-5.9m-23.87 20.68a3 3 0 1 0 1.14 5.89 3 3 0 0 0-1.14-5.9m-23.87 20.67a3 3 0 1 0 1.14 5.9 3 3 0 0 0-1.14-5.9M214.7 289.3a3 3 0 1 0 1.14 5.9 3 3 0 0 0-1.14-5.9m-23.87 20.67a3 3 0 1 0 1.13 5.9 3 3 0 0 0-1.13-5.9m-23.88 20.68a3 3 0 1 0 1.14 5.9 3 3 0 0 0-1.14-5.9m-23.87 20.67a3 3 0 1 0 1.14 5.9 3 3 0 0 0-1.14-5.9M119.22 372a3 3 0 1 0 1.14 5.9 3 3 0 0 0-1.14-5.9m-23.87 20.68a3 3 0 1 0 1.14 5.9 3 3 0 0 0-1.14-5.9m364.04-279.1a3 3 0 1 0 1.14 5.9 3 3 0 0 0-1.14-5.9m-23.87 20.68a3 3 0 1 0 1.14 5.9 3 3 0 0 0-1.14-5.9m-23.87 20.68a3 3 0 1 0 1.13 5.89 3 3 0 0 0-1.13-5.9m-23.88 20.67a3 3 0 1 0 1.14 5.9 3 3 0 0 0-1.14-5.9m-23.87 20.67a3 3 0 1 0 1.14 5.9 3 3 0 0 0-1.14-5.9m-23.87 20.68a3 3 0 1 0 1.14 5.89 3 3 0 0 0-1.14-5.9m-23.87 20.67a3 3 0 1 0 1.14 5.9 3 3 0 0 0-1.14-5.9m-23.87 20.67a3 3 0 1 0 1.14 5.9 3 3 0 0 0-1.14-5.9m-23.87 20.67a3 3 0 1 0 1.14 5.9 3 3 0 0 0-1.14-5.9m-23.87 20.68a3 3 0 1 0 1.13 5.9 3 3 0 0 0-1.13-5.9m-23.88 20.67a3 3 0 1 0 1.14 5.9 3 3 0 0 0-1.14-5.9m-23.87 20.67a3 3 0 1 0 1.14 5.9 3 3 0 0 0-1.14-5.9m-23.87 20.68a3 3 0 1 0 1.14 5.9 3 3 0 0 0-1.14-5.9m-23.87 20.67a3 3 0 1 0 1.14 5.9 3 3 0 0 0-1.14-5.9M125.19 403a3 3 0 1 0 1.14 5.9 3 3 0 0 0-1.14-5.9m-23.87 20.68a3 3 0 1 0 1.14 5.9 3 3 0 0 0-1.14-5.9m387.9-299.76a3 3 0 1 0 1.15 5.89 3 3 0 0 0-1.14-5.9m-23.86 20.67a3 3 0 1 0 1.14 5.9 3 3 0 0 0-1.14-5.9m-23.87 20.67a3 3 0 1 0 1.13 5.9 3 3 0 0 0-1.13-5.9m-23.88 20.68a3 3 0 1 0 1.14 5.89 3 3 0 0 0-1.14-5.9m-23.87 20.67a3 3 0 1 0 1.14 5.9 3 3 0 0 0-1.14-5.9m-23.87 20.67a3 3 0 1 0 1.14 5.9 3 3 0 0 0-1.14-5.9M346 247.96a3 3 0 1 0 1.14 5.89 3 3 0 0 0-1.14-5.9m-23.87 20.67a3 3 0 1 0 1.14 5.9 3 3 0 0 0-1.14-5.9m-23.87 20.67a3 3 0 1 0 1.14 5.9 3 3 0 0 0-1.14-5.9m-23.87 20.67a3 3 0 1 0 1.13 5.9 3 3 0 0 0-1.13-5.9m-23.88 20.68a3 3 0 1 0 1.14 5.9 3 3 0 0 0-1.14-5.9m-23.87 20.67a3 3 0 1 0 1.14 5.9 3 3 0 0 0-1.14-5.9M202.77 372a3 3 0 1 0 1.14 5.9 3 3 0 0 0-1.14-5.9m-23.87 20.68a3 3 0 1 0 1.14 5.9 3 3 0 0 0-1.14-5.9m-23.87 20.67a3 3 0 1 0 1.14 5.9 3 3 0 0 0-1.14-5.9m-23.87 20.67a3 3 0 1 0 1.14 5.9 3 3 0 0 0-1.14-5.9m-23.87 20.68a3 3 0 1 0 1.13 5.9 3 3 0 0 0-1.13-5.9m411.78-320.44a3 3 0 1 0 1.14 5.9 3 3 0 0 0-1.14-5.9m-23.87 20.68a3 3 0 1 0 1.13 5.89 3 3 0 0 0-1.13-5.9m-23.88 20.67a3 3 0 1 0 1.14 5.9 3 3 0 0 0-1.14-5.9m-23.87 20.67a3 3 0 1 0 1.14 5.9 3 3 0 0 0-1.14-5.9m-23.87 20.68a3 3 0 1 0 1.14 5.89 3 3 0 0 0-1.14-5.9m-23.87 20.67a3 3 0 1 0 1.14 5.9 3 3 0 0 0-1.14-5.9m-23.87 20.67a3 3 0 1 0 1.14 5.9 3 3 0 0 0-1.14-5.9m-23.87 20.67a3 3 0 1 0 1.14 5.9 3 3 0 0 0-1.14-5.9m-23.87 20.68a3 3 0 1 0 1.13 5.9 3 3 0 0 0-1.13-5.9m-23.88 20.67a3 3 0 1 0 1.14 5.9 3 3 0 0 0-1.14-5.9m-23.87 20.67a3 3 0 1 0 1.14 5.9 3 3 0 0 0-1.14-5.9m-23.87 20.68a3 3 0 1 0 1.14 5.9 3 3 0 0 0-1.14-5.9m-23.87 20.67a3 3 0 1 0 1.14 5.9 3 3 0 0 0-1.14-5.9M208.74 403a3 3 0 1 0 1.14 5.9 3 3 0 0 0-1.14-5.9m-23.87 20.68a3 3 0 1 0 1.14 5.9 3 3 0 0 0-1.14-5.9M161 444.35a3 3 0 1 0 1.13 5.9 3 3 0 0 0-1.13-5.9m-23.88 20.67a3 3 0 1 0 1.14 5.9 3 3 0 0 0-1.14-5.9m-23.87 20.68a3 3 0 1 0 1.14 5.9 3 3 0 0 0-1.14-5.9m435.66-341.11a3 3 0 1 0 1.14 5.9 3 3 0 0 0-1.14-5.9m-23.87 20.67a3 3 0 1 0 1.13 5.9 3 3 0 0 0-1.13-5.9m-23.88 20.68a3 3 0 1 0 1.14 5.89 3 3 0 0 0-1.14-5.9M477.3 206.6a3 3 0 1 0 1.14 5.9 3 3 0 0 0-1.14-5.9m-23.87 20.67a3 3 0 1 0 1.14 5.9 3 3 0 0 0-1.14-5.9m-23.87 20.68a3 3 0 1 0 1.14 5.89 3 3 0 0 0-1.14-5.9m-23.87 20.67a3 3 0 1 0 1.14 5.9 3 3 0 0 0-1.14-5.9M381.8 289.3a3 3 0 1 0 1.14 5.9 3 3 0 0 0-1.14-5.9m-23.87 20.67a3 3 0 1 0 1.13 5.9 3 3 0 0 0-1.13-5.9m-23.88 20.68a3 3 0 1 0 1.14 5.9 3 3 0 0 0-1.14-5.9m-23.87 20.67a3 3 0 1 0 1.14 5.9 3 3 0 0 0-1.14-5.9M286.32 372a3 3 0 1 0 1.14 5.9 3 3 0 0 0-1.14-5.9m-23.87 20.68a3 3 0 1 0 1.14 5.9 3 3 0 0 0-1.14-5.9m-23.87 20.67a3 3 0 1 0 1.14 5.9 3 3 0 0 0-1.14-5.9m-23.87 20.67a3 3 0 1 0 1.14 5.9 3 3 0 0 0-1.14-5.9m-23.87 20.68a3 3 0 1 0 1.13 5.9 3 3 0 0 0-1.13-5.9m-23.88 20.67a3 3 0 1 0 1.14 5.9 3 3 0 0 0-1.14-5.9m-23.87 20.67a3 3 0 1 0 1.14 5.9 3 3 0 0 0-1.14-5.9m-23.87 20.68a3 3 0 1 0 1.14 5.9 3 3 0 0 0-1.14-5.9M554.87 175.6a3 3 0 1 0 1.14 5.9 3 3 0 0 0-1.14-5.9M531 196.27a3 3 0 1 0 1.14 5.9 3 3 0 0 0-1.14-5.9m-23.87 20.68a3 3 0 1 0 1.14 5.89 3 3 0 0 0-1.14-5.9m-23.87 20.67a3 3 0 1 0 1.14 5.9 3 3 0 0 0-1.14-5.9m-23.87 20.67a3 3 0 1 0 1.14 5.9 3 3 0 0 0-1.14-5.9m-23.87 20.67a3 3 0 1 0 1.14 5.9 3 3 0 0 0-1.14-5.9m-23.87 20.68a3 3 0 1 0 1.13 5.9 3 3 0 0 0-1.13-5.9m-23.88 20.67a3 3 0 1 0 1.14 5.9 3 3 0 0 0-1.14-5.9m-23.87 20.67a3 3 0 1 0 1.14 5.9 3 3 0 0 0-1.14-5.9m-23.87 20.68a3 3 0 1 0 1.14 5.9 3 3 0 0 0-1.14-5.9m-23.87 20.67a3 3 0 1 0 1.14 5.9 3 3 0 0 0-1.14-5.9M292.29 403a3 3 0 1 0 1.14 5.9 3 3 0 0 0-1.14-5.9m-23.87 20.68a3 3 0 1 0 1.14 5.9 3 3 0 0 0-1.14-5.9m-23.87 20.67a3 3 0 1 0 1.13 5.9 3 3 0 0 0-1.13-5.9m-23.88 20.67a3 3 0 1 0 1.14 5.9 3 3 0 0 0-1.14-5.9M196.8 485.7a3 3 0 1 0 1.14 5.9 3 3 0 0 0-1.14-5.9m-23.87 20.67a3 3 0 1 0 1.14 5.9 3 3 0 0 0-1.14-5.9m-23.87 20.67a3 3 0 1 0 1.14 5.9 3 3 0 0 0-1.14-5.9m-23.87 20.68a3 3 0 1 0 1.14 5.9 3 3 0 0 0-1.14-5.9M560.84 206.6a3 3 0 1 0 1.14 5.9 3 3 0 0 0-1.14-5.9m-23.87 20.67a3 3 0 1 0 1.14 5.9 3 3 0 0 0-1.14-5.9m-23.87 20.68a3 3 0 1 0 1.14 5.89 3 3 0 0 0-1.14-5.9m-23.87 20.67a3 3 0 1 0 1.14 5.9 3 3 0 0 0-1.14-5.9m-23.87 20.67a3 3 0 1 0 1.14 5.9 3 3 0 0 0-1.14-5.9m-23.87 20.67a3 3 0 1 0 1.13 5.9 3 3 0 0 0-1.13-5.9m-23.88 20.68a3 3 0 1 0 1.14 5.9 3 3 0 0 0-1.14-5.9m-23.87 20.67a3 3 0 1 0 1.14 5.9 3 3 0 0 0-1.14-5.9M369.87 372a3 3 0 1 0 1.14 5.9 3 3 0 0 0-1.14-5.9M346 392.67a3 3 0 1 0 1.14 5.9 3 3 0 0 0-1.14-5.9m-23.87 20.67a3 3 0 1 0 1.14 5.9 3 3 0 0 0-1.14-5.9m-23.87 20.67a3 3 0 1 0 1.14 5.9 3 3 0 0 0-1.14-5.9m-23.87 20.68a3 3 0 1 0 1.13 5.9 3 3 0 0 0-1.13-5.9m-23.88 20.67a3 3 0 1 0 1.14 5.9 3 3 0 0 0-1.14-5.9m-23.87 20.67a3 3 0 1 0 1.14 5.9 3 3 0 0 0-1.14-5.9m-23.87 20.68a3 3 0 1 0 1.14 5.9 3 3 0 0 0-1.14-5.9m-23.87 20.67a3 3 0 1 0 1.14 5.9 3 3 0 0 0-1.14-5.9m-23.87 20.67a3 3 0 1 0 1.14 5.9 3 3 0 0 0-1.14-5.9M566.8 237.62a3 3 0 1 0 1.14 5.9 3 3 0 0 0-1.14-5.9m-23.87 20.67a3 3 0 1 0 1.14 5.9 3 3 0 0 0-1.14-5.9m-23.87 20.67a3 3 0 1 0 1.14 5.9 3 3 0 0 0-1.14-5.9m-23.87 20.68a3 3 0 1 0 1.13 5.9 3 3 0 0 0-1.13-5.9m-23.88 20.67a3 3 0 1 0 1.14 5.9 3 3 0 0 0-1.14-5.9m-23.87 20.67a3 3 0 1 0 1.14 5.9 3 3 0 0 0-1.14-5.9m-23.87 20.68a3 3 0 1 0 1.14 5.9 3 3 0 0 0-1.14-5.9m-23.87 20.67a3 3 0 1 0 1.14 5.9 3 3 0 0 0-1.14-5.9M375.84 403a3 3 0 1 0 1.14 5.9 3 3 0 0 0-1.14-5.9m-23.87 20.68a3 3 0 1 0 1.14 5.9 3 3 0 0 0-1.14-5.9m-23.87 20.67a3 3 0 1 0 1.13 5.9 3 3 0 0 0-1.13-5.9m-23.88 20.67a3 3 0 1 0 1.14 5.9 3 3 0 0 0-1.14-5.9m-23.87 20.68a3 3 0 1 0 1.14 5.9 3 3 0 0 0-1.14-5.9m-23.87 20.67a3 3 0 1 0 1.14 5.9 3 3 0 0 0-1.14-5.9m-23.87 20.67a3 3 0 1 0 1.14 5.9 3 3 0 0 0-1.14-5.9m-23.87 20.68a3 3 0 1 0 1.14 5.9 3 3 0 0 0-1.14-5.9m-23.87 20.67a3 3 0 1 0 1.14 5.9 3 3 0 0 0-1.14-5.9m387.9-299.76a3 3 0 1 0 1.15 5.9 3 3 0 0 0-1.14-5.9m-23.86 20.67a3 3 0 1 0 1.14 5.9 3 3 0 0 0-1.14-5.9m-23.87 20.67a3 3 0 1 0 1.13 5.9 3 3 0 0 0-1.13-5.9m-23.88 20.68a3 3 0 1 0 1.14 5.9 3 3 0 0 0-1.14-5.9m-23.87 20.67a3 3 0 1 0 1.14 5.9 3 3 0 0 0-1.14-5.9M453.42 372a3 3 0 1 0 1.14 5.9 3 3 0 0 0-1.14-5.9m-23.87 20.68a3 3 0 1 0 1.14 5.9 3 3 0 0 0-1.14-5.9m-23.87 20.67a3 3 0 1 0 1.14 5.9 3 3 0 0 0-1.14-5.9m-23.87 20.67a3 3 0 1 0 1.14 5.9 3 3 0 0 0-1.14-5.9m-23.87 20.68a3 3 0 1 0 1.13 5.9 3 3 0 0 0-1.13-5.9m-23.88 20.67a3 3 0 1 0 1.14 5.9 3 3 0 0 0-1.14-5.9m-23.87 20.67a3 3 0 1 0 1.14 5.9 3 3 0 0 0-1.14-5.9m-23.87 20.68a3 3 0 1 0 1.14 5.9 3 3 0 0 0-1.14-5.9m-23.87 20.67a3 3 0 1 0 1.14 5.9 3 3 0 0 0-1.14-5.9m-23.87 20.67a3 3 0 1 0 1.14 5.9 3 3 0 0 0-1.14-5.9m-23.87 20.68a3 3 0 1 0 1.14 5.9 3 3 0 0 0-1.14-5.9m364.04-279.1a3 3 0 1 0 1.13 5.9 3 3 0 0 0-1.13-5.9m-23.88 20.68a3 3 0 1 0 1.14 5.9 3 3 0 0 0-1.14-5.9M531 340.98a3 3 0 1 0 1.14 5.9 3 3 0 0 0-1.14-5.9m-23.87 20.68a3 3 0 1 0 1.14 5.9 3 3 0 0 0-1.14-5.9m-23.87 20.67a3 3 0 1 0 1.14 5.9 3 3 0 0 0-1.14-5.9M459.39 403a3 3 0 1 0 1.14 5.9 3 3 0 0 0-1.14-5.9m-23.87 20.68a3 3 0 1 0 1.14 5.9 3 3 0 0 0-1.14-5.9m-23.87 20.67a3 3 0 1 0 1.13 5.9 3 3 0 0 0-1.13-5.9m-23.88 20.67a3 3 0 1 0 1.14 5.9 3 3 0 0 0-1.14-5.9M363.9 485.7a3 3 0 1 0 1.14 5.9 3 3 0 0 0-1.14-5.9m-23.87 20.67a3 3 0 1 0 1.14 5.9 3 3 0 0 0-1.14-5.9m-23.87 20.67a3 3 0 1 0 1.14 5.9 3 3 0 0 0-1.14-5.9m-23.87 20.68a3 3 0 1 0 1.14 5.9 3 3 0 0 0-1.14-5.9m-23.87 20.67a3 3 0 1 0 1.14 5.9 3 3 0 0 0-1.14-5.9m-23.87 20.67a3 3 0 1 0 1.13 5.9 3 3 0 0 0-1.13-5.9M584.7 330.65a3 3 0 1 0 1.14 5.9 3 3 0 0 0-1.14-5.9m-23.87 20.67a3 3 0 1 0 1.14 5.9 3 3 0 0 0-1.14-5.9M536.97 372a3 3 0 1 0 1.14 5.9 3 3 0 0 0-1.14-5.9m-23.87 20.68a3 3 0 1 0 1.14 5.9 3 3 0 0 0-1.14-5.9m-23.87 20.67a3 3 0 1 0 1.14 5.9 3 3 0 0 0-1.14-5.9m-23.87 20.67a3 3 0 1 0 1.14 5.9 3 3 0 0 0-1.14-5.9m-23.87 20.68a3 3 0 1 0 1.13 5.9 3 3 0 0 0-1.13-5.9m-23.88 20.67a3 3 0 1 0 1.14 5.9 3 3 0 0 0-1.14-5.9m-23.87 20.67a3 3 0 1 0 1.14 5.9 3 3 0 0 0-1.14-5.9m-23.87 20.68a3 3 0 1 0 1.14 5.9 3 3 0 0 0-1.14-5.9M346 537.38a3 3 0 1 0 1.14 5.9 3 3 0 0 0-1.14-5.9m-23.87 20.67a3 3 0 1 0 1.14 5.9 3 3 0 0 0-1.14-5.9m-23.87 20.68a3 3 0 1 0 1.14 5.9 3 3 0 0 0-1.14-5.9m-23.87 20.67a3 3 0 1 0 1.13 5.9 3 3 0 0 0-1.13-5.9m316.3-237.74a3 3 0 1 0 1.13 5.9 3 3 0 0 0-1.14-5.9m-23.88 20.67a3 3 0 1 0 1.14 5.9 3 3 0 0 0-1.14-5.9M542.94 403a3 3 0 1 0 1.14 5.9 3 3 0 0 0-1.14-5.9m-23.87 20.68a3 3 0 1 0 1.14 5.9 3 3 0 0 0-1.14-5.9m-23.87 20.67a3 3 0 1 0 1.13 5.9 3 3 0 0 0-1.13-5.9m-23.88 20.67a3 3 0 1 0 1.14 5.9 3 3 0 0 0-1.14-5.9m-23.87 20.68a3 3 0 1 0 1.14 5.9 3 3 0 0 0-1.14-5.9m-23.87 20.67a3 3 0 1 0 1.14 5.9 3 3 0 0 0-1.14-5.9m-23.87 20.67a3 3 0 1 0 1.14 5.9 3 3 0 0 0-1.14-5.9m-23.87 20.68a3 3 0 1 0 1.14 5.9 3 3 0 0 0-1.14-5.9m-23.87 20.67a3 3 0 1 0 1.14 5.9 3 3 0 0 0-1.14-5.9m-23.87 20.67a3 3 0 1 0 1.13 5.9 3 3 0 0 0-1.13-5.9m-23.88 20.68a3 3 0 1 0 1.14 5.9 3 3 0 0 0-1.14-5.9m292.43-217.07a3 3 0 1 0 1.14 5.9 3 3 0 0 0-1.14-5.9m-23.87 20.67a3 3 0 1 0 1.14 5.9 3 3 0 0 0-1.14-5.9m-23.87 20.67a3 3 0 1 0 1.14 5.9 3 3 0 0 0-1.14-5.9m-23.87 20.68a3 3 0 1 0 1.13 5.9 3 3 0 0 0-1.13-5.9m-23.88 20.67a3 3 0 1 0 1.14 5.9 3 3 0 0 0-1.14-5.9m-23.87 20.67a3 3 0 1 0 1.14 5.9 3 3 0 0 0-1.14-5.9m-23.87 20.68a3 3 0 1 0 1.14 5.9 3 3 0 0 0-1.14-5.9m-23.87 20.67a3 3 0 1 0 1.14 5.9 3 3 0 0 0-1.14-5.9m-23.87 20.67a3 3 0 1 0 1.14 5.9 3 3 0 0 0-1.14-5.9m-23.87 20.68a3 3 0 1 0 1.14 5.9 3 3 0 0 0-1.14-5.9m-23.87 20.67a3 3 0 1 0 1.13 5.9 3 3 0 0 0-1.13-5.9m-23.88 20.67a3 3 0 1 0 1.14 5.9 3 3 0 0 0-1.14-5.9m268.56-196.4a3 3 0 1 0 1.14 5.9 3 3 0 0 0-1.14-5.9m-23.87 20.68a3 3 0 1 0 1.13 5.9 3 3 0 0 0-1.13-5.9m-23.88 20.67a3 3 0 1 0 1.14 5.9 3 3 0 0 0-1.14-5.9M531 485.7a3 3 0 1 0 1.14 5.9 3 3 0 0 0-1.14-5.9m-23.87 20.67a3 3 0 1 0 1.14 5.9 3 3 0 0 0-1.14-5.9m-23.87 20.67a3 3 0 1 0 1.14 5.9 3 3 0 0 0-1.14-5.9m-23.87 20.68a3 3 0 1 0 1.14 5.9 3 3 0 0 0-1.14-5.9m-23.87 20.67a3 3 0 1 0 1.14 5.9 3 3 0 0 0-1.14-5.9m-23.87 20.67a3 3 0 1 0 1.13 5.9 3 3 0 0 0-1.13-5.9m-23.88 20.68a3 3 0 1 0 1.14 5.9 3 3 0 0 0-1.14-5.9M363.9 630.4a3 3 0 1 0 1.14 5.9 3 3 0 0 0-1.14-5.9M608.6 454.7a3 3 0 1 0 1.13 5.9 3 3 0 0 0-1.13-5.9m-23.88 20.67a3 3 0 1 0 1.14 5.9 3 3 0 0 0-1.14-5.9m-23.87 20.67a3 3 0 1 0 1.14 5.9 3 3 0 0 0-1.14-5.9m-23.87 20.68a3 3 0 1 0 1.14 5.9 3 3 0 0 0-1.14-5.9m-23.87 20.67a3 3 0 1 0 1.14 5.9 3 3 0 0 0-1.14-5.9m-23.87 20.67a3 3 0 1 0 1.14 5.9 3 3 0 0 0-1.14-5.9m-23.87 20.68a3 3 0 1 0 1.14 5.9 3 3 0 0 0-1.14-5.9m-23.87 20.67a3 3 0 1 0 1.13 5.9 3 3 0 0 0-1.13-5.9m-23.88 20.67a3 3 0 1 0 1.14 5.9 3 3 0 0 0-1.14-5.9m-23.87 20.68a3 3 0 1 0 1.14 5.9 3 3 0 0 0-1.14-5.9"/><path fill="#fe7d3a" d="M153.61 439.21a3 3 0 0 0 2.99.58zm537.11 103.37a3 3 0 0 0 2.99.57zM508.27 51.56a3 3 0 1 0-1.14 5.9 3 3 0 0 0 1.14-5.9M478.43 61.9a3 3 0 1 0-1.13 5.9 3 3 0 0 0 1.13-5.9m-29.84 10.33a3 3 0 1 0-1.13 5.9 3 3 0 0 0 1.13-5.9m-29.84 10.34a3 3 0 1 0-1.13 5.9 3 3 0 0 0 1.13-5.9M388.9 92.9a3 3 0 1 0-1.13 5.9 3 3 0 0 0 1.13-5.9m-29.84 10.33a3 3 0 1 0-1.13 5.9 3 3 0 0 0 1.13-5.9m-29.84 10.34a3 3 0 1 0-1.13 5.9 3 3 0 0 0 1.13-5.9m-29.84 10.34a3 3 0 1 0-1.13 5.9 3 3 0 0 0 1.13-5.9m-29.84 10.33a3 3 0 1 0-1.13 5.9 3 3 0 0 0 1.13-5.9m-29.84 10.34a3 3 0 1 0-1.13 5.9 3 3 0 0 0 1.13-5.9m292.43-72.36a3 3 0 1 0-1.13 5.9 3 3 0 0 0 1.13-5.9M502.3 82.57a3 3 0 1 0-1.13 5.9 3 3 0 0 0 1.13-5.9M472.46 92.9a3 3 0 1 0-1.13 5.9 3 3 0 0 0 1.13-5.9m-29.84 10.33a3 3 0 1 0-1.13 5.9 3 3 0 0 0 1.13-5.9m-29.84 10.34a3 3 0 1 0-1.13 5.9 3 3 0 0 0 1.13-5.9m-29.84 10.34a3 3 0 1 0-1.13 5.9 3 3 0 0 0 1.13-5.9m-29.84 10.33a3 3 0 1 0-1.13 5.9 3 3 0 0 0 1.13-5.9m-29.84 10.34a3 3 0 1 0-1.13 5.9 3 3 0 0 0 1.13-5.9m-29.84 10.34a3 3 0 1 0-1.13 5.9 3 3 0 0 0 1.13-5.9m-29.84 10.33a3 3 0 1 0-1.13 5.9 3 3 0 0 0 1.13-5.9m-29.84 10.34a3 3 0 1 0-1.13 5.9 3 3 0 0 0 1.13-5.9m322.27-82.7a3 3 0 1 0-1.13 5.9 3 3 0 0 0 1.13-5.9m-29.84 10.34a3 3 0 1 0-1.13 5.9 3 3 0 0 0 1.13-5.9m-29.84 10.34a3 3 0 1 0-1.13 5.9 3 3 0 0 0 1.13-5.9m-29.84 10.34a3 3 0 1 0-1.13 5.9 3 3 0 0 0 1.13-5.9m-29.84 10.33a3 3 0 1 0-1.13 5.9 3 3 0 0 0 1.13-5.9m-29.84 10.34a3 3 0 1 0-1.13 5.9 3 3 0 0 0 1.13-5.9m-29.84 10.34a3 3 0 1 0-1.13 5.9 3 3 0 0 0 1.13-5.9m-29.84 10.33a3 3 0 1 0-1.13 5.9 3 3 0 0 0 1.13-5.9M317.3 175.6a3 3 0 1 0-1.13 5.9 3 3 0 0 0 1.13-5.9m-29.84 10.34a3 3 0 1 0-1.13 5.9 3 3 0 0 0 1.13-5.9m-29.83 10.33a3 3 0 1 0-1.14 5.9 3 3 0 0 0 1.14-5.9m-29.84 10.34a3 3 0 1 0-1.13 5.9 3 3 0 0 0 1.13-5.9m352.1-93.03a3 3 0 1 0-1.13 5.9 3 3 0 0 0 1.13-5.9m-29.84 10.34a3 3 0 1 0-1.13 5.9 3 3 0 0 0 1.13-5.9m-29.84 10.33a3 3 0 1 0-1.13 5.9 3 3 0 0 0 1.13-5.9m-29.84 10.34a3 3 0 1 0-1.13 5.9 3 3 0 0 0 1.13-5.9m-29.84 10.34a3 3 0 1 0-1.13 5.9 3 3 0 0 0 1.13-5.9m-29.84 10.33a3 3 0 1 0-1.13 5.9 3 3 0 0 0 1.13-5.9m-29.84 10.34a3 3 0 1 0-1.13 5.9 3 3 0 0 0 1.13-5.9m-29.83 10.34a3 3 0 1 0-1.14 5.9 3 3 0 0 0 1.14-5.9m-29.84 10.33a3 3 0 1 0-1.14 5.9 3 3 0 0 0 1.14-5.9m-29.84 10.34a3 3 0 1 0-1.13 5.9 3 3 0 0 0 1.13-5.9m-29.84 10.34a3 3 0 1 0-1.13 5.9 3 3 0 0 0 1.13-5.9m-29.84 10.33a3 3 0 1 0-1.13 5.9 3 3 0 0 0 1.13-5.9m-29.84 10.34a3 3 0 1 0-1.13 5.9 3 3 0 0 0 1.13-5.9m381.94-103.37a3 3 0 1 0-1.13 5.9 3 3 0 0 0 1.13-5.9m-29.84 10.34a3 3 0 1 0-1.13 5.9 3 3 0 0 0 1.13-5.9m-29.84 10.34a3 3 0 1 0-1.13 5.9 3 3 0 0 0 1.13-5.9m-29.84 10.33a3 3 0 1 0-1.13 5.9 3 3 0 0 0 1.13-5.9M484.4 175.6a3 3 0 1 0-1.13 5.9 3 3 0 0 0 1.13-5.9m-29.83 10.34a3 3 0 1 0-1.14 5.9 3 3 0 0 0 1.14-5.9m-29.84 10.33a3 3 0 1 0-1.14 5.9 3 3 0 0 0 1.14-5.9m-29.84 10.34a3 3 0 1 0-1.13 5.9 3 3 0 0 0 1.13-5.9m-29.84 10.34a3 3 0 1 0-1.13 5.9 3 3 0 0 0 1.13-5.9m-29.84 10.33a3 3 0 1 0-1.13 5.9 3 3 0 0 0 1.13-5.9m-29.84 10.34a3 3 0 1 0-1.13 5.9 3 3 0 0 0 1.13-5.9m-29.84 10.34a3 3 0 1 0-1.13 5.9 3 3 0 0 0 1.13-5.9m-29.84 10.33a3 3 0 1 0-1.13 5.9 3 3 0 0 0 1.13-5.9m-29.84 10.34a3 3 0 1 0-1.13 5.9 3 3 0 0 0 1.13-5.9m411.78-113.7a3 3 0 1 0-1.13 5.9 3 3 0 0 0 1.13-5.9m-29.84 10.33a3 3 0 1 0-1.13 5.9 3 3 0 0 0 1.13-5.9m-29.84 10.34a3 3 0 1 0-1.13 5.9 3 3 0 0 0 1.13-5.9m-29.83 10.34a3 3 0 1 0-1.14 5.9 3 3 0 0 0 1.14-5.9m-29.84 10.33a3 3 0 1 0-1.14 5.9 3 3 0 0 0 1.14-5.9m-29.84 10.34a3 3 0 1 0-1.13 5.9 3 3 0 0 0 1.13-5.9m-29.84 10.34a3 3 0 1 0-1.13 5.9 3 3 0 0 0 1.13-5.9m-29.84 10.33a3 3 0 1 0-1.13 5.9 3 3 0 0 0 1.13-5.9m-29.84 10.34a3 3 0 1 0-1.13 5.9 3 3 0 0 0 1.13-5.9m-29.84 10.34a3 3 0 1 0-1.13 5.9 3 3 0 0 0 1.13-5.9m-29.84 10.33a3 3 0 1 0-1.13 5.9 3 3 0 0 0 1.13-5.9m-29.84 10.34a3 3 0 1 0-1.13 5.9 3 3 0 0 0 1.13-5.9m-29.84 10.33a3 3 0 1 0-1.13 5.9 3 3 0 0 0 1.13-5.9m-29.84 10.34a3 3 0 1 0-1.13 5.9 3 3 0 0 0 1.13-5.9m-29.84 10.34a3 3 0 1 0-1.13 5.9 3 3 0 0 0 1.13-5.9M651.5 175.6a3 3 0 1 0-1.13 5.9 3 3 0 0 0 1.13-5.9m-29.83 10.34a3 3 0 1 0-1.14 5.9 3 3 0 0 0 1.14-5.9m-29.84 10.33a3 3 0 1 0-1.14 5.9 3 3 0 0 0 1.14-5.9m-29.84 10.34a3 3 0 1 0-1.13 5.9 3 3 0 0 0 1.13-5.9m-29.84 10.34a3 3 0 1 0-1.13 5.9 3 3 0 0 0 1.13-5.9m-29.84 10.33a3 3 0 1 0-1.13 5.9 3 3 0 0 0 1.13-5.9m-29.84 10.34a3 3 0 1 0-1.13 5.9 3 3 0 0 0 1.13-5.9m-29.84 10.34a3 3 0 1 0-1.13 5.9 3 3 0 0 0 1.13-5.9m-29.84 10.33a3 3 0 1 0-1.13 5.9 3 3 0 0 0 1.13-5.9m-29.84 10.34a3 3 0 1 0-1.13 5.9 3 3 0 0 0 1.13-5.9m-29.84 10.33a3 3 0 1 0-1.13 5.9 3 3 0 0 0 1.13-5.9m-29.84 10.34a3 3 0 1 0-1.13 5.9 3 3 0 0 0 1.13-5.9m-29.84 10.34a3 3 0 1 0-1.13 5.9 3 3 0 0 0 1.13-5.9m-29.84 10.33a3 3 0 1 0-1.13 5.9 3 3 0 0 0 1.13-5.9m-29.84 10.34a3 3 0 1 0-1.13 5.9 3 3 0 0 0 1.13-5.9m-29.84 10.34a3 3 0 1 0-1.13 5.9 3 3 0 0 0 1.13-5.9m471.47-134.38a3 3 0 1 0-1.13 5.9 3 3 0 0 0 1.13-5.9m-29.84 10.34a3 3 0 1 0-1.13 5.9 3 3 0 0 0 1.13-5.9m-29.84 10.34a3 3 0 1 0-1.13 5.9 3 3 0 0 0 1.13-5.9m-29.84 10.33a3 3 0 1 0-1.13 5.9 3 3 0 0 0 1.13-5.9M556 237.62a3 3 0 1 0-1.13 5.9 3 3 0 0 0 1.13-5.9m-29.84 10.34a3 3 0 1 0-1.13 5.9 3 3 0 0 0 1.13-5.9m-29.84 10.33a3 3 0 1 0-1.13 5.9 3 3 0 0 0 1.13-5.9m-29.84 10.34a3 3 0 1 0-1.13 5.9 3 3 0 0 0 1.13-5.9m-29.84 10.33a3 3 0 1 0-1.13 5.9 3 3 0 0 0 1.13-5.9m-29.84 10.34a3 3 0 1 0-1.13 5.9 3 3 0 0 0 1.13-5.9m-29.84 10.34a3 3 0 1 0-1.13 5.9 3 3 0 0 0 1.13-5.9m-29.84 10.33a3 3 0 1 0-1.13 5.9 3 3 0 0 0 1.13-5.9m-29.84 10.34a3 3 0 1 0-1.13 5.9 3 3 0 0 0 1.13-5.9m-29.84 10.34a3 3 0 1 0-1.13 5.9 3 3 0 0 0 1.13-5.9m-29.83 10.33a3 3 0 1 0-1.14 5.9 3 3 0 0 0 1.14-5.9m-29.84 10.34a3 3 0 1 0-1.13 5.9 3 3 0 0 0 1.13-5.9m-29.84 10.34a3 3 0 1 0-1.13 5.9 3 3 0 0 0 1.13-5.9m501.3-144.71a3 3 0 1 0-1.13 5.9 3 3 0 0 0 1.13-5.9m-29.84 10.33a3 3 0 1 0-1.13 5.9 3 3 0 0 0 1.13-5.9m-29.84 10.34a3 3 0 1 0-1.13 5.9 3 3 0 0 0 1.13-5.9m-29.84 10.34a3 3 0 1 0-1.13 5.9 3 3 0 0 0 1.13-5.9m-29.84 10.33a3 3 0 1 0-1.13 5.9 3 3 0 0 0 1.13-5.9m-29.84 10.34a3 3 0 1 0-1.13 5.9 3 3 0 0 0 1.13-5.9m-29.84 10.33a3 3 0 1 0-1.13 5.9 3 3 0 0 0 1.13-5.9m-29.84 10.34a3 3 0 1 0-1.13 5.9 3 3 0 0 0 1.13-5.9m-29.84 10.34a3 3 0 1 0-1.13 5.9 3 3 0 0 0 1.13-5.9m-29.84 10.33a3 3 0 1 0-1.13 5.9 3 3 0 0 0 1.13-5.9m-29.84 10.34a3 3 0 1 0-1.13 5.9 3 3 0 0 0 1.13-5.9m-29.83 10.34a3 3 0 1 0-1.14 5.9 3 3 0 0 0 1.14-5.9m-29.84 10.33a3 3 0 1 0-1.14 5.9 3 3 0 0 0 1.14-5.9m-29.84 10.34a3 3 0 1 0-1.13 5.9 3 3 0 0 0 1.13-5.9m-29.84 10.34a3 3 0 1 0-1.13 5.9 3 3 0 0 0 1.13-5.9m-29.84 10.33a3 3 0 1 0-1.13 5.9 3 3 0 0 0 1.13-5.9m-29.84 10.34a3 3 0 1 0-1.13 5.9 3 3 0 0 0 1.13-5.9m-29.84 10.34a3 3 0 1 0-1.13 5.9 3 3 0 0 0 1.13-5.9M723.1 237.62a3 3 0 1 0-1.13 5.9 3 3 0 0 0 1.13-5.9m-29.84 10.34a3 3 0 1 0-1.13 5.9 3 3 0 0 0 1.13-5.9m-29.84 10.33a3 3 0 1 0-1.13 5.9 3 3 0 0 0 1.13-5.9m-29.84 10.34a3 3 0 1 0-1.13 5.9 3 3 0 0 0 1.13-5.9m-29.84 10.33a3 3 0 1 0-1.13 5.9 3 3 0 0 0 1.13-5.9m-29.84 10.34a3 3 0 1 0-1.13 5.9 3 3 0 0 0 1.13-5.9m-29.84 10.34a3 3 0 1 0-1.13 5.9 3 3 0 0 0 1.13-5.9m-29.84 10.33a3 3 0 1 0-1.13 5.9 3 3 0 0 0 1.13-5.9m-29.84 10.34a3 3 0 1 0-1.13 5.9 3 3 0 0 0 1.13-5.9m-29.83 10.34a3 3 0 1 0-1.14 5.9 3 3 0 0 0 1.14-5.9m-29.84 10.33a3 3 0 1 0-1.14 5.9 3 3 0 0 0 1.14-5.9m-29.84 10.34a3 3 0 1 0-1.13 5.9 3 3 0 0 0 1.13-5.9m-29.84 10.34a3 3 0 1 0-1.13 5.9 3 3 0 0 0 1.13-5.9m-29.84 10.33a3 3 0 1 0-1.13 5.9 3 3 0 0 0 1.13-5.9m-29.84 10.34a3 3 0 1 0-1.13 5.9 3 3 0 0 0 1.13-5.9m-29.84 10.34a3 3 0 1 0-1.13 5.9 3 3 0 0 0 1.13-5.9M245.68 403a3 3 0 1 0-1.13 5.9 3 3 0 0 0 1.13-5.9m-29.84 10.34a3 3 0 1 0-1.13 5.9 3 3 0 0 0 1.13-5.9M186 423.68a3 3 0 1 0-1.13 5.9 3 3 0 0 0 1.13-5.9m531.14-155.05a3 3 0 1 0-1.13 5.9 3 3 0 0 0 1.13-5.9m-29.84 10.33a3 3 0 1 0-1.13 5.9 3 3 0 0 0 1.13-5.9m-29.84 10.34a3 3 0 1 0-1.13 5.9 3 3 0 0 0 1.13-5.9m-29.84 10.34a3 3 0 1 0-1.13 5.9 3 3 0 0 0 1.13-5.9m-29.84 10.33a3 3 0 1 0-1.13 5.9 3 3 0 0 0 1.13-5.9m-29.84 10.34a3 3 0 1 0-1.13 5.9 3 3 0 0 0 1.13-5.9m-29.83 10.34a3 3 0 1 0-1.14 5.9 3 3 0 0 0 1.14-5.9m-29.84 10.33a3 3 0 1 0-1.14 5.9 3 3 0 0 0 1.14-5.9m-29.84 10.34a3 3 0 1 0-1.13 5.9 3 3 0 0 0 1.13-5.9m-29.84 10.34a3 3 0 1 0-1.13 5.9 3 3 0 0 0 1.13-5.9m-29.84 10.33a3 3 0 1 0-1.13 5.9 3 3 0 0 0 1.13-5.9m-29.84 10.34a3 3 0 1 0-1.13 5.9 3 3 0 0 0 1.13-5.9m-29.84 10.34a3 3 0 1 0-1.13 5.9 3 3 0 0 0 1.13-5.9M329.23 403a3 3 0 1 0-1.13 5.9 3 3 0 0 0 1.13-5.9m-29.84 10.34a3 3 0 1 0-1.13 5.9 3 3 0 0 0 1.13-5.9m-29.84 10.34a3 3 0 1 0-1.13 5.9 3 3 0 0 0 1.13-5.9M239.71 434a3 3 0 1 0-1.13 5.9 3 3 0 0 0 1.13-5.9m-29.84 10.34a3 3 0 1 0-1.13 5.9 3 3 0 0 0 1.13-5.9m-29.84 10.34a3 3 0 1 0-1.13 5.9 3 3 0 0 0 1.13-5.9m531.14-155.05a3 3 0 1 0-1.13 5.9 3 3 0 0 0 1.13-5.9m-29.84 10.33a3 3 0 1 0-1.13 5.9 3 3 0 0 0 1.13-5.9m-29.84 10.34a3 3 0 1 0-1.13 5.9 3 3 0 0 0 1.13-5.9m-29.83 10.34a3 3 0 1 0-1.14 5.9 3 3 0 0 0 1.14-5.9m-29.84 10.33a3 3 0 1 0-1.14 5.9 3 3 0 0 0 1.14-5.9m-29.84 10.34a3 3 0 1 0-1.13 5.9 3 3 0 0 0 1.13-5.9m-29.84 10.34a3 3 0 1 0-1.13 5.9 3 3 0 0 0 1.13-5.9m-29.84 10.33a3 3 0 1 0-1.13 5.9 3 3 0 0 0 1.13-5.9m-29.84 10.34a3 3 0 1 0-1.13 5.9 3 3 0 0 0 1.13-5.9m-29.84 10.34a3 3 0 1 0-1.13 5.9 3 3 0 0 0 1.13-5.9M412.78 403a3 3 0 1 0-1.13 5.9 3 3 0 0 0 1.13-5.9m-29.84 10.34a3 3 0 1 0-1.13 5.9 3 3 0 0 0 1.13-5.9m-29.84 10.34a3 3 0 1 0-1.13 5.9 3 3 0 0 0 1.13-5.9M323.26 434a3 3 0 1 0-1.13 5.9 3 3 0 0 0 1.13-5.9m-29.84 10.34a3 3 0 1 0-1.13 5.9 3 3 0 0 0 1.13-5.9m-29.84 10.34a3 3 0 1 0-1.13 5.9 3 3 0 0 0 1.13-5.9m-29.84 10.33a3 3 0 1 0-1.13 5.9 3 3 0 0 0 1.13-5.9m-29.84 10.34a3 3 0 1 0-1.13 5.9 3 3 0 0 0 1.13-5.9m501.3-144.71a3 3 0 1 0-1.13 5.9 3 3 0 0 0 1.14-5.9m-29.83 10.33a3 3 0 1 0-1.13 5.9 3 3 0 0 0 1.13-5.9m-29.84 10.34a3 3 0 1 0-1.13 5.9 3 3 0 0 0 1.13-5.9m-29.84 10.34a3 3 0 1 0-1.13 5.9 3 3 0 0 0 1.13-5.9m-29.84 10.33a3 3 0 1 0-1.13 5.9 3 3 0 0 0 1.13-5.9M556 382.33a3 3 0 1 0-1.13 5.9 3 3 0 0 0 1.13-5.9m-29.84 10.34a3 3 0 1 0-1.13 5.9 3 3 0 0 0 1.13-5.9M496.33 403a3 3 0 1 0-1.13 5.9 3 3 0 0 0 1.13-5.9m-29.84 10.34a3 3 0 1 0-1.13 5.9 3 3 0 0 0 1.13-5.9m-29.84 10.34a3 3 0 1 0-1.13 5.9 3 3 0 0 0 1.13-5.9M406.81 434a3 3 0 1 0-1.13 5.9 3 3 0 0 0 1.13-5.9m-29.84 10.34a3 3 0 1 0-1.13 5.9 3 3 0 0 0 1.13-5.9m-29.84 10.34a3 3 0 1 0-1.13 5.9 3 3 0 0 0 1.13-5.9m-29.84 10.33a3 3 0 1 0-1.13 5.9 3 3 0 0 0 1.13-5.9m-29.84 10.34a3 3 0 1 0-1.13 5.9 3 3 0 0 0 1.13-5.9m-29.83 10.34a3 3 0 1 0-1.14 5.9 3 3 0 0 0 1.14-5.9m-29.84 10.33a3 3 0 1 0-1.13 5.9 3 3 0 0 0 1.13-5.9m471.46-134.37a3 3 0 1 0-1.13 5.9 3 3 0 0 0 1.13-5.9m-29.84 10.33a3 3 0 1 0-1.13 5.9 3 3 0 0 0 1.13-5.9m-29.84 10.34a3 3 0 1 0-1.13 5.9 3 3 0 0 0 1.13-5.9m-29.84 10.34a3 3 0 1 0-1.13 5.9 3 3 0 0 0 1.13-5.9M579.88 403a3 3 0 1 0-1.13 5.9 3 3 0 0 0 1.13-5.9m-29.84 10.34a3 3 0 1 0-1.13 5.9 3 3 0 0 0 1.13-5.9m-29.84 10.34a3 3 0 1 0-1.13 5.9 3 3 0 0 0 1.13-5.9M490.36 434a3 3 0 1 0-1.13 5.9 3 3 0 0 0 1.13-5.9m-29.84 10.34a3 3 0 1 0-1.13 5.9 3 3 0 0 0 1.13-5.9m-29.84 10.34a3 3 0 1 0-1.13 5.9 3 3 0 0 0 1.13-5.9m-29.84 10.33a3 3 0 1 0-1.13 5.9 3 3 0 0 0 1.13-5.9m-29.83 10.34a3 3 0 1 0-1.14 5.9 3 3 0 0 0 1.14-5.9m-29.84 10.34a3 3 0 1 0-1.14 5.9 3 3 0 0 0 1.14-5.9m-29.84 10.33a3 3 0 1 0-1.13 5.9 3 3 0 0 0 1.13-5.9m-29.84 10.34a3 3 0 1 0-1.13 5.9 3 3 0 0 0 1.13-5.9m-29.84 10.34a3 3 0 1 0-1.13 5.9 3 3 0 0 0 1.13-5.9m441.62-124.04a3 3 0 1 0-1.13 5.9 3 3 0 0 0 1.13-5.9M663.43 403a3 3 0 1 0-1.13 5.9 3 3 0 0 0 1.13-5.9m-29.84 10.34a3 3 0 1 0-1.13 5.9 3 3 0 0 0 1.13-5.9m-29.84 10.34a3 3 0 1 0-1.13 5.9 3 3 0 0 0 1.13-5.9M573.91 434a3 3 0 1 0-1.13 5.9 3 3 0 0 0 1.13-5.9m-29.84 10.34a3 3 0 1 0-1.13 5.9 3 3 0 0 0 1.13-5.9m-29.84 10.34a3 3 0 1 0-1.13 5.9 3 3 0 0 0 1.13-5.9m-29.84 10.33a3 3 0 1 0-1.13 5.9 3 3 0 0 0 1.13-5.9m-29.83 10.34a3 3 0 1 0-1.14 5.9 3 3 0 0 0 1.14-5.9m-29.84 10.34a3 3 0 1 0-1.14 5.9 3 3 0 0 0 1.14-5.9m-29.84 10.33a3 3 0 1 0-1.13 5.9 3 3 0 0 0 1.13-5.9m-29.84 10.34a3 3 0 1 0-1.13 5.9 3 3 0 0 0 1.13-5.9m-29.84 10.34a3 3 0 1 0-1.13 5.9 3 3 0 0 0 1.13-5.9m-29.84 10.33a3 3 0 1 0-1.13 5.9 3 3 0 0 0 1.13-5.9m-29.84 10.34a3 3 0 1 0-1.13 5.9 3 3 0 0 0 1.13-5.9m411.78-113.7a3 3 0 1 0-1.13 5.9 3 3 0 0 0 1.13-5.9M657.46 434a3 3 0 1 0-1.13 5.9 3 3 0 0 0 1.13-5.9m-29.84 10.34a3 3 0 1 0-1.13 5.9 3 3 0 0 0 1.13-5.9m-29.84 10.34a3 3 0 1 0-1.13 5.9 3 3 0 0 0 1.13-5.9m-29.84 10.33a3 3 0 1 0-1.13 5.9 3 3 0 0 0 1.13-5.9m-29.83 10.34a3 3 0 1 0-1.14 5.9 3 3 0 0 0 1.14-5.9m-29.84 10.34a3 3 0 1 0-1.14 5.9 3 3 0 0 0 1.14-5.9m-29.84 10.33a3 3 0 1 0-1.13 5.9 3 3 0 0 0 1.13-5.9m-29.84 10.34a3 3 0 1 0-1.13 5.9 3 3 0 0 0 1.13-5.9m-29.84 10.34a3 3 0 1 0-1.13 5.9 3 3 0 0 0 1.13-5.9m-29.84 10.33a3 3 0 1 0-1.13 5.9 3 3 0 0 0 1.13-5.9m-29.84 10.34a3 3 0 1 0-1.13 5.9 3 3 0 0 0 1.13-5.9m-29.84 10.34a3 3 0 1 0-1.13 5.9 3 3 0 0 0 1.13-5.9m-29.84 10.33a3 3 0 1 0-1.13 5.9 3 3 0 0 0 1.13-5.9M681.33 454.7a3 3 0 1 0-1.13 5.9 3 3 0 0 0 1.13-5.9m-29.84 10.33a3 3 0 1 0-1.13 5.9 3 3 0 0 0 1.13-5.9m-29.83 10.34a3 3 0 1 0-1.14 5.9 3 3 0 0 0 1.14-5.9m-29.84 10.34a3 3 0 1 0-1.14 5.9 3 3 0 0 0 1.14-5.9m-29.84 10.33a3 3 0 1 0-1.13 5.9 3 3 0 0 0 1.13-5.9m-29.84 10.34a3 3 0 1 0-1.13 5.9 3 3 0 0 0 1.13-5.9m-29.84 10.34a3 3 0 1 0-1.13 5.9 3 3 0 0 0 1.13-5.9m-29.84 10.33a3 3 0 1 0-1.13 5.9 3 3 0 0 0 1.13-5.9m-29.84 10.34a3 3 0 1 0-1.13 5.9 3 3 0 0 0 1.13-5.9m-29.84 10.34a3 3 0 1 0-1.13 5.9 3 3 0 0 0 1.13-5.9m-29.84 10.33a3 3 0 1 0-1.13 5.9 3 3 0 0 0 1.13-5.9M353.1 568.4a3 3 0 1 0-1.13 5.9 3 3 0 0 0 1.13-5.9m-29.84 10.34a3 3 0 1 0-1.13 5.9 3 3 0 0 0 1.13-5.9m352.1-93.03a3 3 0 1 0-1.12 5.9 3 3 0 0 0 1.13-5.9m-29.83 10.33a3 3 0 1 0-1.13 5.9 3 3 0 0 0 1.13-5.9m-29.84 10.34a3 3 0 1 0-1.13 5.9 3 3 0 0 0 1.13-5.9m-29.84 10.34a3 3 0 1 0-1.13 5.9 3 3 0 0 0 1.13-5.9M556 527.04a3 3 0 1 0-1.13 5.9 3 3 0 0 0 1.13-5.9m-29.84 10.34a3 3 0 1 0-1.13 5.9 3 3 0 0 0 1.13-5.9m-29.84 10.34a3 3 0 1 0-1.13 5.9 3 3 0 0 0 1.13-5.9m-29.84 10.33a3 3 0 1 0-1.13 5.9 3 3 0 0 0 1.13-5.9m-29.84 10.34a3 3 0 1 0-1.13 5.9 3 3 0 0 0 1.13-5.9m-29.84 10.34a3 3 0 1 0-1.13 5.9 3 3 0 0 0 1.13-5.9m-29.84 10.33a3 3 0 1 0-1.13 5.9 3 3 0 0 0 1.13-5.9m-29.84 10.34a3 3 0 1 0-1.13 5.9 3 3 0 0 0 1.13-5.9m322.27-82.7a3 3 0 1 0-1.13 5.9 3 3 0 0 0 1.13-5.9m-29.84 10.34a3 3 0 1 0-1.13 5.9 3 3 0 0 0 1.13-5.9m-29.84 10.34a3 3 0 1 0-1.13 5.9 3 3 0 0 0 1.13-5.9m-29.84 10.34a3 3 0 1 0-1.13 5.9 3 3 0 0 0 1.13-5.9m-29.84 10.33a3 3 0 1 0-1.13 5.9 3 3 0 0 0 1.13-5.9M520.2 568.4a3 3 0 1 0-1.13 5.9 3 3 0 0 0 1.13-5.9m-29.84 10.34a3 3 0 1 0-1.13 5.9 3 3 0 0 0 1.13-5.9m-29.84 10.33a3 3 0 1 0-1.13 5.9 3 3 0 0 0 1.13-5.9m-29.84 10.34a3 3 0 1 0-1.13 5.9 3 3 0 0 0 1.13-5.9m-29.84 10.34a3 3 0 1 0-1.13 5.9 3 3 0 0 0 1.13-5.9m-29.83 10.33a3 3 0 1 0-1.14 5.9 3 3 0 0 0 1.14-5.9m292.42-72.35a3 3 0 1 0-1.13 5.9 3 3 0 0 0 1.13-5.9m-29.84 10.33a3 3 0 1 0-1.13 5.9 3 3 0 0 0 1.13-5.9m-29.84 10.34a3 3 0 1 0-1.13 5.9 3 3 0 0 0 1.13-5.9m-29.84 10.34a3 3 0 1 0-1.13 5.9 3 3 0 0 0 1.13-5.9m-29.84 10.33a3 3 0 1 0-1.13 5.9 3 3 0 0 0 1.13-5.9m-29.84 10.34a3 3 0 1 0-1.13 5.9 3 3 0 0 0 1.13-5.9m-29.84 10.34a3 3 0 1 0-1.13 5.9 3 3 0 0 0 1.13-5.9m-29.83 10.33a3 3 0 1 0-1.14 5.9 3 3 0 0 0 1.14-5.9m-29.84 10.34a3 3 0 1 0-1.14 5.9 3 3 0 0 0 1.14-5.9m-29.84 10.34a3 3 0 1 0-1.13 5.9 3 3 0 0 0 1.13-5.9"/><path fill="none" stroke="#3677ab" stroke-linejoin="round" stroke-width="50" d="m280.92 49.1 283.47 98.2 56.7 294.6L394.3 638.28l-283.47-98.2-56.7-294.6z"/><path fill="none" stroke="#fed53b" stroke-linejoin="round" stroke-width="50" d="m507.7 49.1 226.78 196.4-56.7 294.59-283.47 98.2-226.78-196.4 56.7-294.6z"/><path fill="#fefefe" d="M621.09 429.9a12 12 0 1 1-.02 24 12 12 0 0 1 .02-24M564.4 135.3a12 12 0 1 1-.02 24.01 12 12 0 0 1 .01-24.01M280.92 37.1a12 12 0 1 1-.02 24.01 12 12 0 0 1 .02-24.01M54.14 233.5a12 12 0 1 1-.01 24.01 12 12 0 0 1 .01-24.01M110.84 528.09a12 12 0 1 1-.02 24.01 12 12 0 0 1 .02-24.01M394.31 626.29a12 12 0 1 1-.02 24.01 12 12 0 0 1 .02-24.01M677.78 528.09a12 12 0 1 1-.01 24.01 12 12 0 0 1 .01-24.01M734.48 233.5a12 12 0 1 1-.02 24.01 12 12 0 0 1 .02-24.01M507.7 37.1a12 12 0 1 1-.02 24.01 12 12 0 0 1 .02-24.01M224.23 135.3a12 12 0 1 1-.02 24.01 12 12 0 0 1 .02-24.01M167.53 429.9a12 12 0 1 1-.01 24 12 12 0 0 1 .01-24"/><path fill="#fefefe" d="M394.31 635.36c6.62 0 12 1.31 12 2.93 0 1.61-5.38 2.93-12 2.93s-12-1.32-12-2.93c0-1.62 5.38-2.93 12-2.93M394.31 76.38a12 12 0 1 1-.02 24.01 12 12 0 0 1 .02-24.01"/><path fill="#3677ab" d="M269.33 450.18 302 211.97h32.68l59.9 111.96 59.2-111.96h33.02l32.5 238.2H478.1l-23.32-184.6 10.73 2.03-70.95 130.16-71.47-130 10.72-1.86-23.31 184.28z"/><path fill="none" d="M0 0h788.62v687.39H0z"/></svg>